<?xml version="1.0" encoding="utf-8"?>
<!-- Generator: Adobe Illustrator 24.2.1, SVG Export Plug-In . SVG Version: 6.00 Build 0)  -->
<svg version="1.1" id="레이어_1" xmlns="http://www.w3.org/2000/svg" xmlns:xlink="http://www.w3.org/1999/xlink" x="0px"
	 y="0px" viewBox="0 0 500 500" style="enable-background:new 0 0 500 500;" xml:space="preserve">
<style type="text/css">
	.st0{fill:none;}
</style>
<g>
	<path class="st0" d="M107.19,244.9c-0.02-35.14,11.16-70.21,31.53-98.85c2.8-3.93,6.26-8.06,11.05-8.7
		c5.43-0.73,10.26,3.29,14.08,7.22c13.44,13.81,24.47,29.96,32.43,47.5c1.31,2.88,2.69,5.98,5.42,7.59
		c3.83,2.26,8.66,0.71,12.87-0.7c30.33-10.17,63.82-10.66,94.44-1.38c5.53-29.49,22.35-56.71,46.26-74.84
		c4.09-3.1,9.36-6.07,14.1-4.08c3.77,1.59,5.66,5.73,7.14,9.54c8.59,22.2,14.6,45.4,17.86,68.97c0.46,3.3,0.9,6.73,2.66,9.56
		c1.78,2.86,4.68,4.78,7.36,6.82c20.47,15.56,30.63,41.44,34.32,66.88c2.08,14.33,2.38,29.1-1.17,43.14
		c-6.75,26.65-27.01,48.34-50.65,62.35c-23.64,14.02-50.61,21.28-77.4,27.46c-41.78,9.64-86.18,16.94-126.97,3.68
		c-14.05-4.57-27.25-11.48-39.79-19.29c-11.93-7.44-23.43-15.81-32.77-26.33c-21.54-24.25-29.78-59.65-21.14-90.92
		c3.71-13.42,10.77-26.53,22.44-34.13"/>
</g>
<g>
	<path class="st0" d="M229.72,264.91c0.73,0.95,1.46,1.89,2.19,2.84"/>
</g>
<g>
	<path class="st0" d="M309.35,261.35c0.96,1.19,1.92,2.39,2.88,3.58"/>
</g>
<g>
	<path class="st0" d="M246.25,320.17c3.55,3.51,9.24,4.65,13.88,2.79c6.27-2.52,10.15-9.74,16.8-10.98
		c4.31-0.8,8.57,1.17,12.77,2.42c11.42,3.39,24.35,1.28,34.1-5.57"/>
</g>
</svg>
