<?xml version="1.0" encoding="utf-8"?>
<!-- Generator: Adobe Illustrator 24.2.1, SVG Export Plug-In . SVG Version: 6.00 Build 0)  -->
<svg version="1.1" id="레이어_1" xmlns="http://www.w3.org/2000/svg" xmlns:xlink="http://www.w3.org/1999/xlink" x="0px"
	 y="0px" viewBox="0 0 184.76 55.71" style="enable-background:new 0 0 184.76 55.71;" xml:space="preserve">
<style type="text/css">
	.st0{fill:none;}
</style>
<g>
	<g>
		<g>
			<g>
				<g>
					<path class="st0" d="M12.7,31.81c-0.61,0.09,0.34,0.25-0.4,0.13C12.38,31.82,12.5,31.73,12.7,31.81z"/>
					<path class="st0" d="M177.68,30.63c-1.92,0.89-4.57,0.28-6.71,0.91c-0.25,0.05,0.04-0.42-0.52-0.28
						c-2.06,0.73-5.39,0.5-7.97,0.17l0.15-0.12c-0.49-0.06-1.07,0.36-1.59,0.32c-0.01-0.08,0.16-0.12,0.04-0.22
						c-0.12,0.24-0.93,0.15-1.14,0.34c-0.21-0.08-0.19-0.27-0.46-0.36l-0.28,0.28c-0.8,0.67-2,0.02-3.1,0.39
						c0.05-0.06,0.16-0.12,0.07-0.17c-1.79,0.44-4.04,0.44-6.05,0.65c0.08-0.1,0.15-0.27,0.03-0.38c-0.09,0.29-0.71,0.38-1.25,0.45
						c-0.25-0.28-0.92,0.29-1.56,0.14l0.05-0.07c-0.46,0.31-0.7-0.16-1.07,0.21l-0.3-0.22c-0.2,0.41-0.68-0.2-1.06,0.01l0.01,0.08
						c-0.36,0.11-0.56-0.1-0.89-0.02l-0.03-0.05c-0.79,0.12-1.25-0.1-1.23,0.22c-0.28-0.25,0.77-0.13,0.32-0.5
						c-2.6,0.38-5.29,0.37-7.91,0.38c-0.3-0.13-0.49-0.16-0.56-0.28c-0.26,0.07-0.99,0.07-1.22,0.23c0.09-0.01-0.17-0.16-0.31-0.18
						c-0.48-0.12-0.52,0.36-1.04,0.22c0.21-0.09,0.28-0.19,0.21-0.31c-0.45,0.25-1.04,0.22-1.57,0.3c0.08-0.05,0.21-0.09,0.19-0.19
						c-0.58,0.29-1.05-0.05-1.56,0.13l0.19-0.19c-0.82-0.22-0.24,0.39-0.94,0.26c0.17-0.06,0.11-0.13,0.14-0.21
						c-0.66,0.34-1.72,0.23-2.38,0.34c0.04-0.03,0.03-0.08,0.03-0.08c-0.71,0.04-1.46-0.06-2.25,0.08
						c-0.29-0.08,0.09-0.45-0.66-0.38c0.03,0.37-1.28,0.15-0.84,0.57c-0.65-0.06-1.67-0.2-2.1-0.08c0.29-0.14-0.31-0.45,0.22-0.48
						l-0.4-0.23c0.06-0.15,0.42,0.05,0.29-0.14c-0.27,0.01-1.05,0.16-1.29,0.1c-0.5,0.23-0.96,0.65-1.77,0.7
						c0.38-0.14-0.21-0.41,0.04-0.47l-1.13,0.71c-0.27,0.02-0.06-0.29-0.45-0.2c0.02,0.1-0.15,0.16-0.27,0.24
						c-0.1-0.04-1.12,0.08-1.23-0.28c-0.12-0.14,0.44-0.07,0.14-0.21c-0.5,0-0.52,0.12-1.01,0.13l-0.01-0.05
						c-0.33-0.06-0.97,0.15-0.61,0.35c0.23,0.01-0.08-0.22,0.25-0.11c-0.23,0.21-0.81,0.26-1.31,0.27c0.17-0.06,0.15-0.16,0.22-0.26
						c-0.67,0.28-1.38,0.37-2.12,0.48c-0.01,0.17,0.28-0.31,0.39-0.22c-0.95-0.25-1.97,0.33-2.76-0.03c0.13-0.03,0.07,0.25,0.06,0.2
						c-0.46-0.03-0.44-0.28-0.74-0.19c-0.03-0.15-0.38,0.04-0.69,0.08c-0.16,0.11-0.08-0.07,0.19-0.09
						c-0.43,0.12-2.15,0.33-3.14,0.1c0.02,0.1-0.61,0.35-0.84,0.34l0.09-0.23c-0.21-0.14-0.76,0.01-0.8-0.19
						c-0.49,0.27,1.88-0.21,1.22-0.01c-0.17-0.19-0.92,0.35-0.78,0.04c-0.46,0-0.91,0.25-1.34,0.03c0.13,0.04,0.38-0.31,0.01-0.3
						c-0.65,0.03-0.19,0.11-0.72,0.18l-0.33,0.09c-0.03,0.22-0.58-0.04-0.34,0.21c-0.08-0.18-0.95,0.1-0.88-0.27l0.09-0.29
						c-0.28,0.02-0.46,0.3-0.69,0.43c-0.04-0.03-0.11-0.09-0.09-0.13c-0.05,0.44-0.67-0.05-1.01,0.29c-0.59-0.16-1.5-0.03-1.78-0.32
						c-0.46,0.13-0.87,0.28-1.39,0.18c0.1-0.04,0.25-0.05,0.28-0.15c-0.32-0.14-0.41-0.02-0.7,0.05c0.07-0.07-0.65-0.27-1.01-0.43
						c-0.45,0.13-0.3,0.37-0.35,0.51c-0.41-0.45-1.28,0.26-1.79-0.14c0.16-0.06,0.66-0.21,0.29-0.32c-0.41-0.44-0.84,0.31-1.5,0.09
						l0.16,0.37c-0.29-0.23-0.98,0.2-0.91-0.17c-0.22,0.13-0.78-0.13-0.71,0.22c-1.09-0.32-2.66,0.14-3.32-0.5
						c-0.16,0.06-0.55-0.01-0.47,0.17c0.26,0.2,0.37-0.14,0.46,0c-0.14,0.01-0.17,0.11-0.19,0.15c-0.34-0.09-0.61-0.12-0.28-0.41
						c-0.75-0.23-0.79,0.59-1.75,0.44c0.05-0.15-0.03-0.2-0.31-0.18l-0.54,0.24c-0.62-0.07-0.35-0.34-0.36-0.59
						c-0.33,0.04-0.74,0.02-0.89,0.2l-0.4-0.32c0.29,0.23-0.28,0.15-0.43,0.21l0.16-0.06c-0.06-0.11-0.44-0.05-0.64-0.02
						c0.04,0.15,0.43,0.22,0.65,0.27c-0.17,0.11-0.44,0.08-0.66,0.2c0.08-0.24-0.54-0.18-0.8-0.21c-0.3-0.06-0.34,0.21-0.43,0.2
						c-0.01-0.13-0.49-0.03-0.26-0.2c0.1-0.04,0.23,0.13,0.41,0.02c-0.2-0.1-0.17-0.32-0.59-0.16c-0.31,0.12,0.07,0.48-0.52,0.32
						c0.16-0.06,0.19-0.16,0.31-0.24l-0.55-0.14l-0.03,0.22c-0.07-0.06-0.02-0.08-0.06-0.11c-0.17,0.23-0.85,0.06-0.98,0.32
						c-0.28,0.02-0.59-0.16-0.85-0.19l0.05-0.02c-0.32-0.14-0.76-0.05-1.04,0.09l0.02-0.05c-0.18-0.02-0.6,0.01-0.82,0.14
						c-0.45-0.17-0.14-0.84-0.64-0.57c-0.46,0-0.72,0.4-0.54,0.54c-0.82-0.16-1.76,0.19-2.51-0.16c-0.12,0.09-0.05,0.15-0.29,0.2
						c-1.21-0.1-2.55,0.23-3.5-0.22c0.35-0.09,0.03-0.22,0.02-0.35c-0.29,0.2-0.34-0.21-0.45,0.13c0.03,0.2,0,0.3,0.34,0.38
						c-0.72,0.1-1.81,0.09-2.21-0.1c0.2,0.1,0.04,0.16-0.11,0.21c0.06-0.32-0.47-0.37-0.88-0.26l-0.06,0.2l-0.26-0.2
						c-0.15,0.06-0.17,0.41-0.57,0.22c-0.02-0.08-0.04-0.15-0.11-0.21c-0.42,0.16-1,0.42-1.45,0.25l-0.37-0.29
						c-0.19,0.03-0.52,0.2-0.18,0.28c-0.77-0.18-1.26-0.2-1.5-0.45c-1.33,0.59-3.25,0.59-4.79,0.55l0.05-0.15
						c-0.41-0.14-0.22,0.26-0.5,0.15c0.13-0.14-0.31-0.3,0.01-0.47c-0.59-0.16-0.76,0.25-1.15,0.32c-0.06,0.19,0.31-0.12,0.23,0.12
						c-0.07,0.07-0.82-0.15-0.91,0.14c-0.15-0.11-0.03-0.33,0.05-0.45l-0.36,0.14c-0.44-0.34,1.01-0.6,0.55-1.02l-0.33,0.04
						c-0.32-0.31,0.88-0.34,0.05-0.45c-0.36,0.14-0.68,0.56-0.35,0.69c-0.76,0.08-0.35,0.69-1.16,0.67
						c-0.22-0.17,0.65-0.04,0.49-0.28c-0.38-0.24-0.77,0.13-1.11,0.05c0.38,0.11,0.06,0.4-0.19,0.46c-0.41-0.14,0.27-0.27-0.32-0.31
						c-0.1,0.17-0.63,0.29-0.17,0.41c-0.21,0.38-0.61-0.11-0.93,0.19c-0.19-0.27,0.6-0.62-0.04-0.75c0.1,0.26-0.79,0.35-0.45,0.73
						c-0.25-0.08-0.28-0.28-0.09-0.44c-0.36-0.16-0.87,0.47-0.99-0.04l-0.12,0.26c-0.11-0.09-0.27-0.15-0.46-0.29
						c-0.32-0.01-1.02,0.36-0.99-0.04c-0.1,0.04-0.83,0.03-0.55,0.3c0.45,0.17,0.52-0.2,0.77,0.17c-0.32-0.3-0.65,0.04-0.91,0.15
						l-0.04-0.15c-0.15,0.06-0.51,0.03-0.61,0.2c0.12-0.09,0.06-0.19-0.07-0.23l-0.16,0.24c-0.63,0.12-0.15-0.41-0.76-0.34
						l0.46-0.18c-0.1,0.04-0.31-0.18-0.6-0.1c-0.11,0.22-0.33,0.47-0.42,0.64c-0.34,0.1-0.16-0.24-0.49-0.02l0.44-0.26
						c0.07-0.07-0.3-0.35-0.76-0.34c-0.29,0.08-0.75,0.39-0.28,0.5c-0.23,0-0.56-0.12-0.37-0.28c-0.52,0.08,0.07,0.23-0.38,0.37
						c-0.19-0.14-0.76-0.34-1.11-0.55l0.47-0.36h-0.31c0.4-0.29-0.21-0.22,0.02-0.52c-0.21-0.05-0.47,0.06-0.68,0.14
						c0.63,0.48-0.7,0.67-0.51,1.11c-0.86,0.13-0.55-1.07-1.43-0.37c0.15,0.11-0.27,0.45,0.27,0.32c-0.53-0.05-0.36,0.45-0.99,0.27
						c0.46-0.18-0.5-0.44,0.17-0.71c-0.04,0.15,0.38,0.11,0.48,0.07c-0.22-0.17,0.04-0.44-0.51-0.44c-0.33,0.04-0.79,0.06-0.72,0.29
						c0.02,0.25,0.51-0.03,0.3,0.23c-0.66,0.09-0.78-0.29-1.05,0.16c0.42-0.04,0.53,0.22,0.52,0.39l-0.49,0.11l0.09-0.17
						c-0.78-0.11-0.23,0.31-0.99,0.28l-0.36-0.33c0.18-0.29,1.1,0.11,0.96-0.35c-0.49-0.01-0.65,0.23-1.12,0.12
						c0.1-0.04,0.24-0.06,0.35-0.1c-0.18-0.01-0.36-0.63-1.06-0.25c-0.36,0.15-0.09,0.17-0.1,0.34c-0.79,0.07-1.02,0.25-1.53,0.28
						c0.1-0.34-0.9-0.02-0.34-0.37c0.26,0.19,1.41,0.16,1.68-0.17c-0.29-0.4,0.62,0.05,0.79-0.36c-0.64,0-0.61-0.4-0.72-0.65
						c-0.18-0.02-0.35,0.1-0.45,0.14c-0.07,0.25,0.16,0.24,0.18,0.49c-0.71-0.05-1.39,0.09-1.78,0.34
						c-0.24-0.12-0.17-0.36,0.11-0.39c-0.84,0.09-1.74,0.07-2.54,0.01c0.52,0.39-0.89,0.11-0.53,0.43c0.43,0.08,0.8,0.36,0.57,0.54
						c-0.27-0.02,0.01-0.17-0.11-0.26c-0.34,0.22-0.54-0.34-0.86,0.01c0.77-0.14,0.14-0.49,0.28-0.8c-0.55,0.19,0.02-0.22-0.53-0.21
						c-0.55,0.18-1.23,0.33-1.84,0.41c-0.78-0.28-1.96,0.05-2.64,0.08c-0.36-0.15-0.13-0.51-0.52-0.56
						c-0.46,0.02,0.35,0.37-0.33,0.23l0.06-0.07c-0.2,0.09-1.25-0.2-1.44,0.31l0.2-0.39c-0.13-0.03-0.24,0.06-0.35,0.1
						c-0.01-0.12-0.16-0.23,0.04-0.32c-0.43-0.25-0.88,0.07-1.34,0.09l0.3,0.22c-0.78,0.2-1.31-0.01-2.06,0.09l0.01-0.22l-0.44,0.15
						c0.1-0.22-0.31-0.34-0.55-0.16l1.15-0.58c0.33,0.12-0.35,0.28-0.13,0.49c0.18,0.19,0.88,0.11,0.98-0.11
						c-0.27-0.02-0.28,0.03-0.49,0.12c-0.1-0.31,0.31-0.31,0.5-0.52c-0.14,0.02-0.34-0.07-0.37,0.03c0.27-0.16,0.55-0.19,1.01-0.21
						c-0.31,0.13,0.18,0.19,0.06,0.28c0.03-0.27,0.46-0.37,1.03-0.31c0.41,0.3,1.06-0.23,1.72-0.17c-0.26,0.28-0.59,0.51-0.99,0.64
						c0.42,0.13,0.46-0.02,0.88,0.11c0.19-0.21,0.33-0.53,0.86-0.67l0.03,0.2c0.49-0.12,0.48-0.42,1.1-0.38
						c1.07,0.06,2.16,0.04,2.98,0.06l0.04,0.2c0.44-0.44,1.5-0.19,2.11-0.39c1.04,0.18,2.25-0.23,2.79,0.11
						c1.83-0.18,3.42-0.38,5.32-0.31l-0.32,0.3c0.34-0.22,0.22,0.17,0.55,0.12c-0.38-0.23,0.46-0.31,0.69-0.49
						c0.85,0.22,1.93-0.03,2.67-0.24l0.03,0.2c0.75-0.39,1.66-0.06,2.6,0c0.11,0.08,0.28,0.27,0.56,0.25
						c0.51-0.33,0.78-0.31,1.53-0.52c0.55-0.01,1.44,0.08,1.99,0.21c2.06-0.46,4.16-0.16,6.3-0.43l0.15,0.24
						c2.08-0.51,4.63-0.03,6.4-0.27l-0.17,0.41c0.55,0.13,1.27-0.1,1.13-0.39c0.56,0.13,1.39-0.19,1.74,0.15
						c0.57,0.08,0.7-0.18,1.17-0.23c1.14,0.16,1.56,0.13,2.64,0.07l-0.27-0.03c-0.12,0.09-0.13,0.26,0.14,0.29
						c0.4-0.11,1.47,0.13,1.08-0.37c1.14,0.3,2.68-0.19,3.79,0.2c-0.09-0.13,0.19-0.16,0.31-0.24c1.01,0.01,2.06,0.29,2.86,0.08
						c0.16,0.07-0.26,0.22,0.15,0.24c0.24-0.05,0.01-0.17,0.31-0.24c1.63-0.23,3.29,0.3,4.78,0.26c2.64-0.22,5.38-0.05,7.9-0.05
						l-0.03,0.1c0.85-0.36,1.98,0.41,2.66-0.14c0.2,0.1,0.76,0.06,0.61,0.24c0.68-0.25,1.88,0.28,2.86-0.04
						c-0.09-0.01-0.14,0.01-0.24,0.05c0.98,0.23,1.85-0.05,2.88,0.16c-0.11,0.04-0.3,0.07-0.33,0.17c0.4,0.19,0.95-0.4,1.17,0.08
						c0.23,0,0.17-0.23,0.03-0.22c2.27,0.22,4.69-0.06,7.05-0.13c1.69,0.3,0.09,0.79,1.43,0.46c0.11,0.09,0.08-0.18,0.1-0.08
						c0.52-0.12,0.8,0.54,1.16,0.29c-0.14-0.29,0.24-0.16,0.25-0.33c1.03,0.2,1.24,0.47,2.06,0.25l-0.06,0.15
						c0.96-0.42,2.07-0.18,2.88-0.67c5.28-0.04,10.33-0.29,15.47-0.35c5.08,0.09,10.05-0.16,15.21,0.02
						c1.21,0.38,1.3,0.37,2.63,0.18c-0.05,0.07-0.14,0.08-0.05,0.14c0.06-0.33,0.93-0.05,1.05-0.36c1.91,0.02,3.66-0.08,5.62-0.15
						c-0.31,0.04-0.46,0.32-0.09,0.28l0.38-0.22l0.06,0.09c0.25-0.06,0.52-0.23,0.26-0.32c4.91-0.43,9.77,0.08,14.59-0.25
						c1.15,0.08,2.77-0.12,4.01-0.24c3.7,0.22,7.05,0.35,10.76-0.2C179.64,29.46,179.21,30.33,177.68,30.63z"/>
					<path class="st0" d="M13.44,31.76c0.14,0.16,0.57,0.24,0.24,0.47C13.63,32.07,13.4,31.91,13.44,31.76z"/>
					<path class="st0" d="M24.96,33.13c0.01-0.05,0.16,0.06,0.2,0.09c-0.14,0.01-0.27,0.15-0.38,0.07
						C24.92,33.28,24.89,33.2,24.96,33.13z"/>
					<path class="st0" d="M27.89,33.18c-0.04,0.15-0.67,0.27-1.04,0.3L27.89,33.18z"/>
					<path class="st0" d="M30.63,33.74c0.24,0.12,0.17,0.19-0.14,0.19C30.46,33.85,30.57,33.81,30.63,33.74z"/>
					<path class="st0" d="M30.82,33.4c0.23-0.01,0.34,0.08,0.45,0.16C31.26,33.44,30.75,33.65,30.82,33.4z"/>
					<path class="st0" d="M36.75,33.76c0.14-0.01,0.45-0.14,0.58,0.03C37.19,33.68,36.65,33.98,36.75,33.76z"/>
					<path class="st0" d="M39.51,33.53c0.09,0.01,0.13,0.04,0.23-0.01c0.16,0.07-0.01,0.17-0.15,0.19L39.51,33.53z"/>
					<polygon class="st0" points="89.72,33.38 89.42,33.44 89.46,33.3 					"/>
					<path class="st0" d="M111.74,33.64c0.3-0.09,0.21,0.14,0.26,0.16C111.72,33.81,112.09,33.62,111.74,33.64z"/>
					<polygon class="st0" points="123.61,32.96 123.52,32.96 123.55,32.67 					"/>
				</g>
			</g>
		</g>
	</g>
</g>
</svg>
