<?xml version="1.0" encoding="utf-8"?>
<!-- Generator: Adobe Illustrator 24.2.1, SVG Export Plug-In . SVG Version: 6.00 Build 0)  -->
<svg version="1.1" id="레이어_1" xmlns="http://www.w3.org/2000/svg" xmlns:xlink="http://www.w3.org/1999/xlink" x="0px"
	 y="0px" viewBox="0 0 500 235.8" style="enable-background:new 0 0 500 235.8;" xml:space="preserve">
<style type="text/css">
	.st0{fill:none;}
</style>
<g>
	<path class="st0" d="M95.3,32.04c-8.97,39.85-14.03,80.58-15.08,121.41c-0.31,11.93-0.17,24.33,4.96,35.11
		c5.14,10.77,16.68,19.41,28.44,17.37c12.15-2.1,19.87-14.11,24.34-25.61c6.88-17.72,9.71-36.99,8.21-55.94
		c-5.57,7.74-5.21,18.19-3.78,27.63c1.85,12.16,5.1,24.1,9.66,35.52c4.15,10.38,10.75,21.43,21.69,23.73
		c8.18,1.72,16.75-2.21,22.55-8.22c5.8-6.01,9.29-13.85,12.29-21.64c9.87-25.67,15.65-52.92,17.05-80.39
		c0.58-11.37,0.35-23.11-4.07-33.6c-1.08-2.55-2.54-5.16-5.03-6.39c-3.37-1.67-7.64-0.15-10.2,2.61c-2.56,2.76-3.77,6.48-4.77,10.11
		c-9.91,36.18-4.58,76.28,14.45,108.61c5.15,8.75,13.33,17.91,23.39,16.56c6.97-0.94,12.19-6.72,16.31-12.42
		c5.14-7.1,9.81-15.43,8.72-24.12s-10.68-16.51-18.58-12.72c-4.61,2.21-7,7.35-8.43,12.26c-3,10.34-2.91,22.55,4.18,30.65
		c7.25,8.28,20.18,9.8,30.42,5.78c10.24-4.02,18.08-12.57,23.99-21.85c11.6-18.2,17.05-40.25,15.25-61.76
		c8.99,23.92,9.08,50.13,9.07,75.69c-0.62-23.91,17.36-47,40.69-52.25c4.85-1.09,10.24-1.68,13.7-5.24
		c2.69-2.76,3.61-6.75,4.25-10.55c2.18-13.01,2.27-26.36,0.27-39.4c-4.6,8.4-5.59,18.24-6.34,27.78c-2.14,27.29-3,54.69-2.6,82.06
		c0.58-10.39,1.99-20.74,4.21-30.91c1.06-4.87,2.51-10.03,6.32-13.26c3.09-2.61,7.23-3.52,11.22-4.21
		c13.67-2.36,27.62-3.12,41.47-2.27c-5.88,1.79-12.15-0.21-18.28-0.57c-6.13-0.36-13.58,2.16-14.7,8.2
		c-0.4,2.14,0.11,4.35,0.73,6.44c4.47,15.07,15.35,28.13,29.37,35.24"/>
</g>
</svg>
