<?xml version="1.0" encoding="utf-8"?>
<!-- Generator: Adobe Illustrator 24.2.1, SVG Export Plug-In . SVG Version: 6.00 Build 0)  -->
<svg version="1.1" id="레이어_1" xmlns="http://www.w3.org/2000/svg" xmlns:xlink="http://www.w3.org/1999/xlink" x="0px"
	 y="0px" viewBox="0 0 500 500" style="enable-background:new 0 0 500 500;" xml:space="preserve">
<style type="text/css">
	.st0{fill:none;}
</style>
<g>
	<path class="st0" d="M356.36,386.56c-23.59,6.51-48.8,1.88-72.27-5.05c-50.2-14.83-97.26-40.18-137.26-73.94
		c-20.75-17.51-39.95-37.77-51.19-62.48s-13.6-54.53-1.26-78.71c15.82-30.98,55.26-46.94,88.73-37.48
		c33.47,9.46,58.35,42.21,60.45,76.93c4.91-34.87,25.6-67.22,55.21-86.28c12.96-8.35,28.58-14.34,43.67-11.16
		c24.15,5.1,37.75,31.26,42.04,55.56c10.37,58.73-14.86,119.86-55.83,163.2s-96,70.91-152.34,90.47"/>
</g>
</svg>
