<?xml version="1.0" encoding="utf-8"?>
<!-- Generator: Adobe Illustrator 24.2.1, SVG Export Plug-In . SVG Version: 6.00 Build 0)  -->
<svg version="1.1" id="레이어_1" xmlns="http://www.w3.org/2000/svg" xmlns:xlink="http://www.w3.org/1999/xlink" x="0px"
	 y="0px" viewBox="0 0 500 500" style="enable-background:new 0 0 500 500;" xml:space="preserve">
<g>
	<g>
 <path d="M232.28,113.57c3.83,22.41,3.41,45.55-0.9,67.86c-4.33,22.45-12.5,44.12-24.22,63.76c-6.55,10.98-14.18,21.27-22.82,30.69
                              c-1.92,2.1,0.49,5.27,3.03,3.93c16.78-8.9,36.96-5.31,53.16,3.06c8.51,4.4,16.38,10,23.76,16.1c7.27,6.01,14.08,12.58,20.35,19.62
                              c7.04,7.91,13.35,16.42,18.92,25.42c1.41,2.29,4.35,1.08,4.66-1.26c2.72-20.81,6.81-41.44,12.18-61.73
                              c5.37-20.28,12.03-40.22,19.93-59.66c4.45-10.94,9.31-21.7,14.54-32.28c-1.52-0.64-3.05-1.28-4.57-1.93
                              c-0.4,1.29-2.01,1.89-3.22,2.27c-2.06,0.65-4.24,1.09-6.39,1.33c-4.58,0.52-9.26,0.34-13.8-0.45c-9.3-1.62-18.08-5.32-26.3-9.88
                              c-15-8.32-28.4-19.36-39.54-32.4c-6.26-7.33-11.73-15.3-16.39-23.73c-1.55-2.82-5.87-0.3-4.32,2.52
                              c8.83,16.01,20.68,30.38,34.72,42.1c7.05,5.89,14.62,11.15,22.65,15.63c8.67,4.84,18.02,8.87,27.85,10.58
                              c5.6,0.97,11.23,1.2,16.87,0.4c4.7-0.67,11.08-1.83,12.69-7.05c0.82-2.66-3.3-4.5-4.57-1.93c-9.46,19.14-17.7,38.88-24.63,59.07
                              c-6.91,20.13-12.52,40.71-16.78,61.57c-2.4,11.77-4.36,23.63-5.91,35.55c1.55-0.42,3.11-0.84,4.66-1.26
                              c-10.33-16.71-23.26-31.84-38.24-44.55c-15.13-12.83-32.67-24.33-52.76-26.85c-10.92-1.37-22.25,0.21-32.02,5.39
                              c1.01,1.31,2.02,2.62,3.03,3.93c15.92-17.34,28.45-37.54,37.28-59.34c8.79-21.7,13.76-44.97,14.61-68.37
                              c0.47-13.21-0.43-26.44-2.66-39.47c-0.23-1.33-1.87-2.08-3.08-1.75C232.61,110.88,232.05,112.23,232.28,113.57L232.28,113.57z"/>
	</g>
</g>
</svg>
