<?xml version="1.0" encoding="utf-8"?>
<!-- Generator: Adobe Illustrator 24.2.1, SVG Export Plug-In . SVG Version: 6.00 Build 0)  -->
<svg version="1.1" id="레이어_1" xmlns="http://www.w3.org/2000/svg" xmlns:xlink="http://www.w3.org/1999/xlink" x="0px"
	 y="0px" viewBox="0 0 500 500" style="enable-background:new 0 0 500 500;" xml:space="preserve">
<g>
	<g>
		<path d="M229.09,365.09c-15.79,1.73-27.88-12.13-36.95-23.11c-10.4-12.59-19.75-26.08-27.55-40.43
			c-7.75-14.25-13.91-29.36-17.77-45.13c-3.66-14.9-5.13-30.24-3.97-45.55c1.09-14.47,4.48-28.92,10.32-42.21
			c5.83-13.27,14.06-25.46,24.66-35.39c11.5-10.77,26.15-19.29,42.38-18.48c15.7,0.78,30.03,9.43,39.86,21.39
			c4.95,6.02,8.87,12.98,11.77,20.2c2.97,7.39,5.17,15.26,6.07,23.18c0.9,7.92,0.57,16.04-2.06,23.62c-1.08,3.11-2.47,6.8-5.24,8.8
			c-0.55,0.4-1.16,0.75-1.81,0.95c-0.54,0.16-0.91,0.23-1.25,0.03c0.23,0.13,0.03,0.06-0.1-0.12c-0.14-0.19-0.24-0.37-0.3-0.62
			c-0.2-0.77,0.08-1.66,0.31-2.39c1.01-3.3,2.69-6.49,4.42-9.47c1.72-2.97,3.67-5.81,5.85-8.46c4.42-5.37,9.62-10.08,15.32-14.05
			c11.84-8.24,25.58-13.57,39.74-16.18c12.87-2.37,27.99-2.45,39.19,5.28c13.11,9.04,13.88,26.64,11.42,40.91
			c-2.92,16.9-10.41,32.61-19.73,46.89c-8.9,13.63-19.57,26.02-31.3,37.28c-11.84,11.36-24.76,21.56-38.28,30.84
			c-14.01,9.61-28.66,18.29-43.95,25.7c-15.28,7.4-31.21,13.5-47.64,17.81c-16.28,4.27-33.04,6.73-49.89,6.78
			c-8.09,0.02-16.19-0.48-24.2-1.61c-1.34-0.19-2.69,0.33-3.08,1.75c-0.32,1.17,0.4,2.89,1.75,3.08
			c17.61,2.49,35.39,2.24,52.98-0.31c17.52-2.55,34.67-7.37,51.15-13.8c16.72-6.52,32.79-14.62,48.13-23.91
			c14.85-9,29.11-19.04,42.44-30.16c13.11-10.94,25.3-23.04,35.84-36.49c10.93-13.94,20.42-29.26,26.29-46.04
			c2.93-8.37,4.91-17.14,5.49-26.01c0.54-8.32-0.39-16.92-4.05-24.5c-6.83-14.16-22.41-19.58-37.22-19.81
			c-15.03-0.23-30.33,3.9-43.85,10.29c-13.55,6.4-25.86,15.9-34.3,28.39c-2.05,3.03-3.85,6.24-5.35,9.58
			c-1.58,3.52-3.87,8.12-1.49,11.8c2.24,3.46,6.61,3.13,9.72,1.12c3.57-2.3,5.42-5.95,6.99-9.77c6.49-15.76,3.38-34.41-2.47-49.88
			c-5.89-15.6-15.89-29.92-30.35-38.65c-7.21-4.36-15.28-7.19-23.66-8.15c-8.41-0.96-16.95,0.37-24.77,3.57
			c-15.05,6.15-27.58,17.71-37.14,30.67c-9.11,12.35-15.55,26.63-19.43,41.45c-3.93,15-5.32,30.72-4.17,46.19
			c1.25,16.78,5.38,33.29,11.56,48.91c6.32,15.97,14.67,31.07,24.43,45.19c4.93,7.13,10.21,14.02,15.77,20.68
			c5.28,6.32,10.91,12.42,17.75,17.09c6.37,4.34,13.96,7.15,21.75,6.3c1.34-0.15,2.5-1.04,2.5-2.5
			C231.59,366.36,230.44,364.95,229.09,365.09L229.09,365.09z"/>
	</g>
</g>
</svg>
