<?xml version="1.0" encoding="utf-8"?>
<!-- Generator: Adobe Illustrator 24.2.1, SVG Export Plug-In . SVG Version: 6.00 Build 0)  -->
<svg version="1.1" id="레이어_1" xmlns="http://www.w3.org/2000/svg" xmlns:xlink="http://www.w3.org/1999/xlink" x="0px"
	 y="0px" viewBox="0 0 1280 1024" style="enable-background:new 0 0 1280 1024;" xml:space="preserve">
<style type="text/css">
	.st0{fill:none;}
</style>
<g>
	<path class="st0" d="M11.19,655.71c50.52-52.08,101.05-104.18,151.59-156.26c81.34-83.86,162.79-167.8,249-244.43
		C510.25,167.49,614.8,89.67,724.01,22.63c13.4-8.23,27.97-16.53,42.91-13.96c-35.22,64.44-81.67,118.83-127.49,172.98
		C426.9,432.82,218.48,692.31,53.28,989.77c165.1-196.26,330.69-393.04,514-564.85c39.29-36.83,80.83-73.34,129.35-87.71
		c-179.95,206.21-360.4,413.01-518.83,642.9c132.99-165.47,277.14-318.18,430.61-456.19c20.83-18.74,45.33-38.23,70.93-32.17
		C570.58,652.76,454.18,806.46,330.91,951.87c72.99-75.73,148.03-152.92,238.42-194.16c12.34,87.38-78.8,161.05-64.71,248.06
		c52.14-37.82,99.68-83.84,148.28-127.86c192.52-174.41,403.82-319.35,627.1-430.16"/>
</g>
</svg>
