<?xml version="1.0" encoding="utf-8"?>
<!-- Generator: Adobe Illustrator 24.2.1, SVG Export Plug-In . SVG Version: 6.00 Build 0)  -->
<svg version="1.1" id="레이어_1" xmlns="http://www.w3.org/2000/svg" xmlns:xlink="http://www.w3.org/1999/xlink" x="0px"
	 y="0px" viewBox="0 0 500 164.29" style="enable-background:new 0 0 500 164.29;" xml:space="preserve">
<style type="text/css">
	.st0{display:none;}
	.st1{display:inline;fill:none;}
	.st2{fill:none;}
</style>
<g class="st0">
	<path class="st1" d="M11.19,201.55c24.69-25.45,49.38-50.91,74.08-76.36c39.75-40.98,79.55-82,121.68-119.45
		c48.12-42.77,99.21-80.8,152.58-113.56c6.55-4.02,13.67-8.08,20.97-6.82c-17.21,31.49-39.91,58.07-62.3,84.53
		C214.34,92.63,112.49,219.44,31.76,364.8c80.68-95.91,161.6-192.07,251.18-276.03c19.2-18,39.5-35.84,63.21-42.86
		C258.21,146.68,170.03,247.73,92.61,360.08c64.99-80.86,135.43-155.49,210.43-222.93c10.18-9.16,22.15-18.68,34.66-15.72
		c-53.15,78.68-110.03,153.79-170.27,224.85c35.67-37.01,72.34-74.73,116.51-94.88c6.03,42.7-38.51,78.7-31.62,121.22
		c25.48-18.48,48.71-40.97,72.46-62.48c94.08-85.23,197.34-156.06,306.45-210.21"/>
</g>
<g>
	<path class="st2" d="M391.7,113.9c-88.23,36.43-212.18,42.76-310.46,15.85c-14.49-3.97-29.03-8.92-37.23-16.78
		c-8.48-8.13-8.83-18.43-3.66-27.42s15.36-16.78,26.89-23.6c55.05-32.5,140.56-43.62,219.63-39.3
		c52.69,2.87,104.74,12.02,149.01,28.49c10.75,4,21.23,8.54,28.29,14.64s10.24,14.03,5.57,20.82c-3.82,5.55-12.21,9.63-20.7,13.14
		c-25.01,10.34-53.4,17.72-82.09,24.29c-49.12,11.26-100.19,20.42-152.88,23.55c-52.69,3.12-107.3-0.03-155.51-12.49
		c-15.69-4.06-31.22-9.4-40.23-17.73c-14.36-13.29-8.45-30.92,5.26-44.42c15.71-15.47,40.37-27.49,67.2-36.81
		c51.55-17.91,112.7-26.71,173.08-25.18S383.66,24.29,432.8,44.27c12.75,5.18,25.05,11.05,33.18,18.67
		c8.12,7.61,11.55,17.27,5.8,25.56c-5.28,7.61-17.26,12.99-29.07,17.68c-96.82,38.49-218.72,56.14-336.19,48.7"/>
</g>
</svg>
