<?xml version="1.0" encoding="utf-8"?>
<!-- Generator: Adobe Illustrator 24.2.1, SVG Export Plug-In . SVG Version: 6.00 Build 0)  -->
<svg version="1.1" id="레이어_1" xmlns="http://www.w3.org/2000/svg" xmlns:xlink="http://www.w3.org/1999/xlink" x="0px"
	 y="0px" viewBox="0 0 375.71 379.76" style="enable-background:new 0 0 375.71 379.76;" xml:space="preserve">
<style type="text/css">
	.st0{fill:#9C4E9A;}
</style>
<g>
	<g>
		<g>
			<g>
				<g>
					<path class="st0" d="M282.47,74.96c-0.54-0.48-0.64-0.64-0.65-0.72c-0.47-0.36-0.92-0.71-1.39-1.08L282.47,74.96z"/>
					<path class="st0" d="M348.62,221.66c-0.01,0.1-0.02,0.17-0.03,0.3c0.09-0.32,0.2-0.71,0.27-0.78
						C348.79,220.85,348.79,220.85,348.62,221.66z"/>
					<path class="st0" d="M346.88,179c-0.05-0.75-0.1-1.49-0.15-2.15C346.67,176.89,346.77,177.79,346.88,179z"/>
					<path class="st0" d="M298.41,91c-0.58-0.71-1.16-1.43-1.75-2.16c-0.62-0.7-1.25-1.41-1.89-2.13
						C295.06,87.26,296.49,88.86,298.41,91z"/>
					<path class="st0" d="M347.38,184.74c-0.08-1.51-0.3-3.93-0.5-5.73C347.04,180.75,347.2,182.68,347.38,184.74z"/>
					<path class="st0" d="M320.62,296.65c0.7-0.94,1.51-1.93,2.27-3.1c0.01-0.1,0.11-0.3,0.05-0.31
						C322.22,294.42,321.4,295.52,320.62,296.65z"/>
					<path class="st0" d="M199.32,287.23c-3.12,1.28-3.6,1.62-3.09,1.6C196.74,288.5,197.65,288.01,199.32,287.23z"/>
					<path class="st0" d="M118.27,279.57c0.58,0.27,1.16,0.51,1.67,0.72C118.76,279.74,117.95,279.38,118.27,279.57z"/>
					<path class="st0" d="M164.5,295.53c0.1,0.08,0.32,0.15,0.64,0.22C165.46,295.7,165.33,295.63,164.5,295.53z"/>
					<path class="st0" d="M314.76,249.74l1.08-1.97C315.6,248.09,315.21,248.83,314.76,249.74z"/>
					<path class="st0" d="M219.74,320.26c-0.38,0.07-0.71,0.14-1.07,0.21C219.03,320.4,219.36,320.33,219.74,320.26z"/>
					<path class="st0" d="M216.19,320.94c0.86-0.17,1.66-0.32,2.49-0.48C217.6,320.67,216.65,320.83,216.19,320.94z"/>
					<path class="st0" d="M317.58,299.34c-0.76,1.29-2.22,3.43-3.47,5.3c-1.3,1.83-2.41,3.38-2.3,3.57l2.32-2.8
						c0.75-0.95,1.48-1.92,2.21-2.88l2.19-2.9l2.09-2.98c-1.57,2.06-2.82,3.56-3.48,4.09C316.51,301.3,316.55,300.95,317.58,299.34z
						"/>
					<path class="st0" d="M198.52,75.62c2.12-0.27,3.71-0.47,4.9-0.57c1.19-0.12,1.99-0.22,2.51-0.3c-1.27,0.12-2.57,0.25-3.85,0.37
						c-1.28,0.15-2.55,0.34-3.78,0.51L198.52,75.62z"/>
					<path class="st0" d="M287.22,101.98c-0.09-0.09-0.19-0.19-0.27-0.27c0.15,0.16,0.25,0.28,0.4,0.45L287.22,101.98z"/>
					<path class="st0" d="M191.02,77.07c-0.48,0.14-1.02,0.28-1.28,0.4C191.33,77.21,191.4,77.11,191.02,77.07z"/>
					<path class="st0" d="M262.88,62.28c-0.55-0.33-1-0.6-1.7-1.02C261.93,61.72,262.44,62.03,262.88,62.28z"/>
					<path class="st0" d="M283.34,96.71c1.37,1.7,2.64,3.48,3.88,5.27c0.63,0.61,1.24,1.27,2.06,2.12c0.55,0.35-0.34-0.98-1.66-2.66
						C286.28,99.77,284.49,97.79,283.34,96.71z"/>
					<path class="st0" d="M191.02,77.07c1.64-0.44,4.19-1.06,7.28-1.44c-1.18,0.05-2.37,0.04-3.55,0.13
						C186.2,77.13,190.12,76.94,191.02,77.07z"/>
					<path class="st0" d="M206.64,285.71c-0.94,0.37-0.87,0.23-0.36-0.12c0.51-0.37,1.42-0.88,2.3-1.49
						c1.71-1.15,2.94-2.01-0.96,0.06l-3.5,2.11c-1.17,0.71-2.33,1.46-3.59,2.01c1.14-0.79-3.36,0.5-4.3,0.55
						c-1.41,0.9,1.11,0.22,2.93-0.15c1.82-0.37,2.96-0.45-1.46,1.74c-1.95,1.31-9.25,3.22-13.01,3.73c4.16-0.77,4.15-0.61,2.67-0.14
						c-1.48,0.44-4.41,1.34-6.12,1.56c-1.32,0.09-2.83,0.22-4.39,0.38c-1.56,0.13-3.19,0.1-4.72,0.16
						c-3.07,0.17-5.78-0.14-6.99-0.36c-0.4,0.05-1.63,0.12-3.1,0.05c-1.47-0.12-3.18-0.28-4.57-0.46l-0.24-0.25
						c-0.79-0.05-1.34-0.08-1.72-0.1c-0.37-0.04-0.57-0.06-0.63-0.05c-0.12,0.01,0.28,0.12,0.83,0.22c1.11,0.17,2.8,0.4,1.98,0.44
						c-2.29-0.1-5.15-0.81-8.37-1.43c-1.61-0.33-3.27-0.86-5-1.28c-0.86-0.22-1.74-0.45-2.63-0.67c-0.88-0.27-1.76-0.54-2.65-0.82
						c0.89,0.26,1.76,0.52,2.62,0.77c0.87,0.21,1.72,0.38,2.56,0.56c1.67,0.34,3.27,0.71,4.81,0.97c1.55,0.2,3.04,0.38,4.47,0.57
						c0.71,0.09,1.41,0.17,2.09,0.25c0.69,0.04,1.36,0.07,2.02,0.1c-0.83-0.11-1.55-0.19-2.17-0.3c-0.61-0.14-1.11-0.25-1.53-0.35
						c-0.83-0.2-1.28-0.34-1.45-0.44c-0.33-0.19,0.49-0.21,1.81-0.14c1.32,0.12,3.15,0.08,4.83,0.1c1.68-0.01,3.21,0.04,3.96-0.1
						c-2.65-0.13-4.89-0.33-6.91-0.43c-2.01-0.2-3.78-0.45-5.5-0.63c-1.73-0.14-3.36-0.5-5.12-0.8c-0.88-0.16-1.79-0.33-2.75-0.5
						c-0.97-0.15-1.95-0.47-3.02-0.73c-5.06-1.78-4.71-2.1-2.81-1.9c0.95,0.1,2.29,0.33,3.55,0.58c1.26,0.26,2.44,0.52,3.09,0.63
						c-1.19-0.2-2.35-0.57-3.52-0.86c-1.18-0.3-2.35-0.6-3.51-0.89c-2.3-0.64-4.52-1.4-6.64-2.03c-4.15-1.48-7.79-2.83-10.14-4
						c3.4,1.33,4.92,1.59,6.31,1.93c0.7,0.16,1.37,0.32,2.25,0.56c0.44,0.11,0.93,0.27,1.51,0.42c0.59,0.14,1.26,0.31,2.05,0.5
						c-6.94-3.33-8.56-3.53-12-4.94c0.98,0.46,2.21,1.06,3.27,1.61c1.09,0.5,2.02,0.93,2.34,1.17c-1.04-0.49-1.96-0.83-2.72-1.2
						c-0.76-0.36-1.42-0.65-1.99-0.87c-1.14-0.45-1.95-0.67-2.65-0.81c-1.42-0.25-2.34-0.26-4.57-1.26
						c-1.43-0.98-3.24-2.07-4.96-3.43c-1.74-1.32-3.6-2.59-5.13-3.92c-3.11-2.59-5.26-4.77-4.67-4.79l-0.48,0.71
						c-3.13-2.54-3.78-3.39-3.83-3.62c-0.03-0.26,0.61,0.02,0.25-0.51c-1.28-0.82-1.39-0.43-2.42-1c-0.99-0.61-3.08-2.03-7.56-7.15
						c1.2,0.35-0.76-1.95-2.65-4.54c-1.91-2.58-3.74-5.47-3.11-5.65c-1.69-2.61-2.94-4.5-4.1-6.49c-0.3-0.5-0.59-0.99-0.9-1.5
						c-0.29-0.52-0.55-1.07-0.83-1.65c-0.55-1.16-1.18-2.41-1.68-3.97c-0.47-1.75-0.39-2.08,0.02-1.54c0.2,0.27,0.48,0.75,0.82,1.39
						c0.33,0.63,0.71,1.42,1.18,2.25c0.45,0.84,0.93,1.76,1.41,2.69c0.51,0.91,1.04,1.83,1.53,2.7c0.24,0.44,0.47,0.86,0.69,1.26
						c0.24,0.4,0.46,0.77,0.66,1.12c0.4,0.71,0.73,1.3,0.97,1.71c4.81,7.5-1.15-0.67,0.79,2.34c1.64,2.34,3.43,4.58,5.3,6.75
						c-1.39-1.95-3.36-4.89-4.68-7.33c-1.33-2.44-2.11-4.31-1.58-3.96c-0.57-0.91-0.91-1.5-1.12-1.86c-0.22-0.35-0.31-0.46-0.32-0.4
						c-0.01,0.12,0.28,0.91,0.6,1.65c0.69,1.47,1.23,2.93-1.15-1.16l-1.15-2.61c-0.36-0.88-0.67-1.78-1.01-2.66
						c-1.06-2.1-1.43-3.1-1.72-3.47c-0.26-0.38-0.31-0.2-0.39-0.09c-0.08,0.1-0.18,0.12-0.55-0.61c-0.4-0.72-0.94-2.24-1.93-5.2
						c0.78,1.95,0.91,2.11,0.69,1.27c-0.26-0.82-0.73-2.69-1.25-4.79c-0.29-1.04-0.46-2.18-0.68-3.25c-0.21-1.08-0.4-2.11-0.48-3.02
						c-0.2-1.81-0.26-3.03,0-2.88c-0.6-0.16-1.4-5.73-1.43-11.62c-0.09-5.89,0.58-12.02,0.34-13.37c-0.4,2.2-0.64,4.42-0.9,6.64
						l0.62-1.45c-0.47,7.24-0.05,13.27,0.82,20.66c-0.64-2.87-0.73-2.36-0.95-1.94c-0.19,0.41-0.38,0.71-0.94-2.71
						c-0.84-6.46-0.52-7.36-0.32-6.83c0.23,0.53,0.61,2.43,0.57,1.52c-0.11-1.71-0.28-3.43-0.34-5.15
						c-0.02-1.72-0.14-3.45-0.07-5.18c-0.2,1.16-0.3,2.33-0.42,3.5c-0.11,1.17-0.27,2.35-0.31,3.52c-0.08-4.05,0.04-8.86,0.78-14.01
						c0.7-5.15,1.89-10.61,3.59-15.97c2.9-7.79,3.05-7.17,2.76-6.12c-0.11,0.54-0.27,1.22-0.12,1.08c0.15-0.14,0.59-1.11,1.86-3.77
						c0.42-1.25,0.73-2.11,0.98-2.8c0.25-0.7,0.44-1.24,0.65-1.84c0.43-1.21,1.07-2.63,2.83-5.95c-1.1,1.71-1.84,3.37-2.52,4.88
						c-0.61,1.54-1.14,2.95-1.73,4.23c-0.5,0.77-0.48,0.36-0.12-0.66c0.38-1.01,1.05-2.67,1.82-4.37c1.54-3.41,3.5-7.03,3.01-6.86
						c0.85-1.31,1.34-1.76,1.41-1.64c0.1,0.13-0.2,0.84-0.64,1.99c2.96-5.61,6.43-10.83,9.69-14.96c3.26-4.12,6.23-7.2,8.16-8.66
						l1.51-2.33l1.58-2.29c1.9-1.96,3.28-3.16,4.09-3.92c0.83-0.76,1.18-1,1.18-0.94c-0.01,0.12-1.34,1.58-2.75,3.12
						c-1.4,1.54-2.79,3.23-3.07,3.68c-0.25,0.48,0.59-0.3,3.91-3.43c1.35-1.31,2.7-2.6,4.05-3.81c1.31-1.24,2.63-2.37,3.83-3.43
						c2.37-2.16,4.44-3.86,5.62-5.03c-1.71,1.35-3.45,2.67-5.09,4.11c1.73-1.83,2.53-2.68,3.62-3.78c1.09-1.09,2.46-2.45,5.65-4.92
						c2.33-1.67,3-1.87,3.73-2.24c0.74-0.36,1.53-0.9,4.29-2.99c1.89-1.09,3.39-1.93,4.57-2.56c1.17-0.63,2.06-1,2.65-1.25
						c1.19-0.48,1.31-0.34,0.88,0.11c-0.42,0.45-1.4,1.22-2.37,2c-0.96,0.82-1.93,1.66-2.41,2.19c1.37-0.77,2.32-1.28,2.96-1.57
						c0.65-0.28,0.98-0.36,1.07-0.32c0.2,0.1-0.53,0.67-1.33,1.36c-1.62,1.36-3.71,2.89-0.22,0.53l-2.04,1.02l2.61-1.94l2.68-1.84
						l2.7-1.84l2.77-1.73c-2.85,1.14-4.48,2-5.43,2.57c-0.95,0.56-1.22,0.84-1.29,1.01c-0.14,0.34,0.53,0.21-1.83,0.98
						c-2.07,1.26-4.19,2.46-6.23,3.78c0.4-0.44,1.62-1.27,3.25-2.32c0.81-0.52,1.72-1.09,2.67-1.7c0.98-0.56,2-1.15,3.02-1.74
						c1.02-0.58,2.04-1.16,3-1.71c0.97-0.52,1.89-1.01,2.7-1.44c1.61-0.88,2.77-1.58,3.06-1.85c0.13,0.1-0.16,0.47-1.3,1.3
						c-0.57,0.41-1.36,0.92-2.43,1.54c-0.53,0.31-1.14,0.65-1.82,1.02c-0.67,0.39-1.41,0.81-2.23,1.29l2.23-0.63l2.26-0.55
						c3.89-1.93,6.25-3.72,8.62-4.29c3.12-0.97,1.03,0.19,0.06,0.91c-0.97,0.74-0.97,0.74,6.4-2.12c3.97-1.45,6.87-2.57,9.2-3.38
						c1.16-0.42,2.16-0.81,3.06-1.17c0.91-0.34,1.73-0.64,2.5-0.92c3.09-1.19,5.57-2.15,11.23-3.27c-1.22-0.05-4.01,0.68-7.53,1.48
						c3.58-1.23-2.95,0.03,3.17-1.72c1.84-0.1,5.74-0.76,10.36-1.47c2.31-0.31,4.79-0.74,7.29-0.98c1.25-0.14,2.49-0.29,3.72-0.43
						c1.22-0.1,2.42-0.19,3.58-0.28c-2.38,0.57,3.56,0.52,0.68,0.96c1.16-0.12,2.3-0.16,3.39-0.24c1.09-0.07,2.13-0.17,3.08-0.2
						c1.9-0.08,3.48-0.24,4.48-0.36c-9.38-0.25-4.85-0.44,0.24-0.59c1.27-0.01,2.57-0.01,3.7-0.02c1.13,0,2.07,0.04,2.64,0.02
						c1.12-0.02,0.72-0.23-2.93-0.62c7.36,0.37,11.64,1.32,15.21,2.09c1.76,0.48,3.36,0.9,5.04,1.4c0.83,0.27,1.69,0.54,2.61,0.84
						c0.46,0.14,0.93,0.29,1.42,0.44c0.48,0.17,0.99,0.35,1.51,0.54c-0.29-0.03-4.32-0.98-6.75-1.39c-1.23-0.18-2.04-0.28-1.77-0.16
						c0.26,0.15,1.64,0.4,4.67,1.29c0.89,0.17,1.67,0.32,2.33,0.45c0.66,0.15,1.21,0.28,1.67,0.38c0.93,0.2,1.49,0.29,1.81,0.31
						c0.63,0.04,0.27-0.22-0.19-0.51c-0.46-0.29-1.03-0.62-0.77-0.71c0.13-0.05,0.46-0.04,1.11,0.06c0.33,0.05,0.73,0.12,1.23,0.22
						c0.49,0.11,1.08,0.28,1.77,0.47c-1.42-0.61-2.9-1.08-4.37-1.57c-1.46-0.53-2.96-0.94-4.46-1.36c-0.23-0.3,0.64-0.21,2.12,0.09
						c1.48,0.31,3.52,0.96,5.66,1.65c2.1,0.8,4.33,1.59,6.08,2.42c0.89,0.39,1.68,0.73,2.33,1.01c0.63,0.3,1.11,0.53,1.39,0.64
						c2.51,1.38,0.69,0.55-1.15-0.24c-1.89-0.71-3.81-1.33-1.38,0.04c1.93,0.89,3.54,1.79,5.06,2.49c1.45,0.81,2.76,1.52,3.99,2.17
						c1.19,0.72,2.28,1.42,3.36,2.12c1.09,0.68,2.03,1.54,3.06,2.39c-2.27-1.32-2.68-1.54-3.21-1.76c-0.52-0.23-1.11-0.54-3.71-1.91
						c1.01,0.67,1.9,1.25,2.67,1.76c0.77,0.51,1.43,0.94,1.94,1.37c1.04,0.82,1.71,1.36,2.1,1.7c0.79,0.69,0.51,0.61,0.11,0.45
						c-0.4-0.15-0.92-0.38-0.62,0c0.3,0.38,1.43,1.34,4.07,3.89c1.76,1.53,2.15,1.76,2.82,2.2c0.63,0.48,1.56,1.19,4.04,4.12
						c-0.61-0.96-1.06-1.64-1.48-2.3c-0.44-0.64-0.89-1.24-1.52-2c-0.64-0.75-1.47-1.67-2.74-2.88c-0.64-0.6-1.36-1.31-2.26-2.06
						c-0.45-0.38-0.92-0.8-1.44-1.22c-0.54-0.41-1.11-0.84-1.72-1.31c2.05,0.85,5.18,3.51,8.38,6.9c3.19,3.41,6.4,7.55,9.22,11.01
						c-2.08-2.89-2.4-3.34-2.77-3.85c-0.38-0.5-0.78-1.09-3.35-3.92c-0.03-0.66-0.5-1.54-0.31-1.67c0.1-0.07,0.36,0.06,0.93,0.5
						c0.57,0.43,1.45,1.19,2.72,2.44c-2.76-3.15-5.01-5.13-7.61-7.31c-0.66-0.54-1.33-1.09-2.05-1.67
						c-0.72-0.57-1.49-1.18-2.32-1.83c-0.84-0.63-1.75-1.3-2.74-2.03c-0.96-0.77-2.07-1.51-3.28-2.33c-0.56-0.62-0.07-0.47,1,0.1
						c1.1,0.53,2.66,1.62,4.33,2.77c3.34,2.28,6.7,5.3,7.13,4.97c2.33,1.88,5.87,5.68,8.96,9.96c3.11,4.27,5.82,8.94,7.34,11.96
						c3.31,4.94,6.51,10.82,9.33,16.5c2.81,5.68,5.19,11.16,7.12,15.36c1.25,4.16,3.65,11.37,5.29,19.75
						c0.83,4.19,1.46,8.65,1.77,13.1c0.32,4.45,0.31,8.88,0.03,12.96c-0.32,1.24-0.71,6.23-1.3,9.64c-0.56,3.41-0.94,5.24-0.48,0.25
						c0,0.71-0.49,4.42-0.97,7.5c-0.51,3.08-0.95,5.56-0.34,3.87c0.12-1.4,0.61-2.87,1.08-5.77c0.04,0.89,0.1,1.79,0.12,2.69
						c-1.74,7.72-3.5,16.5-6.51,23.55c-0.67,1.08,0.54-2.29,1.45-5.41c0.93-3.11,1.65-5.93,0.64-3.57
						c-0.62,3.61-3.21,12.59-7.21,21.3c-1.96,4.36-4.26,8.65-6.51,12.25c-2.23,3.61-4.42,6.53-5.92,8.35
						c-2,2.47-3.32,3.67-4.34,4.51c-1.03,0.83-1.73,1.33-2.67,2.24c-2.4,2.57-4.94,5-7.63,7.28c-1.09,0.63-1.43,0.48-3.13,1.47
						c-4.17,3.07-6.98,5.2-9.64,7.04c-2.99,1.73-4.92,2.65-5.97,3.09c-1.05,0.44-1.26,0.38-0.89,0.03c0.74-0.73,3.74-2.71,6.54-4.81
						c2.22-1.29,4.36-2.69,6.49-4.11c2.14-1.81,4.76-3.96,6.27-5.43c1.52-1.45,2.01-2.12,0.07-0.81c-2.85,2.57-2.62,2.66-3.57,3.65
						c-1.25,0.83-2.52,1.62-3.81,2.4c-1.72,1.46-5.2,3.93-8.17,5.87c-2.96,1.95-5.39,3.41-4.67,3.33
						c-4.17,2.04-8.68,4.22-13.17,6.13c-2.27,0.89-4.51,1.77-6.67,2.62c-2.18,0.77-4.32,1.41-6.3,1.98
						c5.49-1.51-1.27,1.03,0.44,0.88l4.76-1.54c1.59-0.5,3.13-1.15,4.7-1.72c-1.85,0.77-3.89,1.67-6.1,2.43
						c-2.2,0.78-4.46,1.7-6.79,2.36c-4.61,1.5-9.28,2.6-13.01,3.28c0.84-0.51,1.11-0.67-2.71-0.26c2.68-0.29-0.72,0.53-3.36,1.21
						c-1.32,0.37-2.46,0.56-2.53,0.69c-0.08,0.09,0.93,0.16,3.83-0.29c2.1-0.53,4.15-0.92,6.33-1.47c2.17-0.58,4.52-1.09,7.22-1.8
						c1.85-0.18,0.69,0.43-1.56,1.17c-1.14,0.34-2.53,0.76-3.94,1.19c-1.41,0.42-2.83,0.86-4.04,1.17
						c-1.52,0.33-3.41,0.75-5.51,1.21c-2.11,0.4-4.45,0.76-6.86,1.18c-2.41,0.4-4.9,0.63-7.31,0.95c-1.2,0.17-2.39,0.25-3.54,0.34
						c-1.15,0.09-2.26,0.18-3.31,0.27c-2.66,0.1-4.38-0.23-6.56-0.37c-1.09-0.09-2.3-0.11-3.79-0.17c-1.5-0.08-3.29-0.12-5.55-0.1
						c5.74,0.6,3.02,0.77-1.56,0.85c-2.29-0.08-5.03-0.17-7.39-0.25c-2.36-0.16-4.34-0.3-5.11-0.23c-1.09-0.19-2.12-0.36-3.12-0.54
						c-0.99-0.2-1.94-0.38-2.86-0.55c-1.83-0.35-3.57-0.56-5.21-0.92c-3.28-0.75-6.4-1.32-9.68-2.73c0.89,0.18,2.33,0.67,4.13,1.07
						c1.78,0.41,3.87,0.9,5.95,1.38c4.2,0.77,8.38,1.52,10.14,1.43c0.28-0.22-0.4-0.66,0.49-0.84c0.45-0.09,1.29-0.12,2.83-0.02
						c0.77,0.04,1.72,0.16,2.89,0.22c1.17,0.06,2.56,0.15,4.21,0.27c-1.97-0.21-3.59-0.39-4.94-0.53c-1.34-0.2-2.4-0.35-3.26-0.46
						c-1.72-0.22-2.61-0.28-3.25-0.29c-1.28,0-1.49,0.13-5.11-0.46c1.79,0.3,3.56,0.72,5.37,0.94c-1.24-0.08-0.72,0.15-0.49,0.31
						c0.24,0.13,0.17,0.32-2.21-0.17c-2.29-0.49-4.35-0.9-6.21-1.34c-1.84-0.51-3.49-0.97-5-1.39c-0.75-0.22-1.47-0.43-2.16-0.62
						c-0.68-0.24-1.33-0.47-1.95-0.69c-1.25-0.45-2.41-0.87-3.52-1.28c-0.55-0.21-1.1-0.41-1.64-0.61
						c-0.53-0.23-1.05-0.46-1.57-0.69c-1.04-0.46-2.08-0.92-3.16-1.4c-2.19-0.9-4.44-2.15-7.24-3.54c1.2,0.73,0.46,0.6-0.93,0.14
						c-0.35-0.12-0.74-0.25-1.14-0.4c-0.4-0.18-0.81-0.36-1.23-0.55c-0.83-0.38-1.66-0.77-2.32-1.1c-1.32-0.74-2.3-1.31-3.02-1.75
						c-0.7-0.46-1.13-0.81-1.39-1.03c-0.51-0.46-0.29-0.5,0.05-0.48c0.69,0.05,1.88,0.35-1.09-1.84c-0.96-0.42-2.11-1.01-3.27-1.62
						c-1.14-0.65-2.25-1.37-3.19-1.95c-1.88-1.17-3.04-1.87-2-0.95c-2-1.29-2.39-1.73-2.68-2.02c-0.28-0.3-0.42-0.51-1.73-1.59
						c-2.73-1.47-5.7-3.5-10.61-7.94c0.29,0.12,0.66,0.28,1.53,0.97c0.89,0.65,2.32,1.76,4.69,3.85c-5.36-4.66-6.57-7.12-4.1-5.32
						c1.37,1.32,2.83,2.54,4.25,3.82c0.72,0.62,1.41,1.29,2.15,1.88l2.24,1.77c2.24,1.35,0.14-0.29-2.43-2.29
						c-2.45-2.15-5.36-4.67-5.02-4.71c1.96,1.57,3.61,3.03,5.09,4.35c1.53,1.24,2.92,2.32,4.23,3.23
						c-2.31-2.25-10.25-8.07-14.37-12.16c-0.84-0.77-1.46-1.49-1.98-2.08c-0.52-0.59-0.92-1.06-1.23-1.43
						c-0.62-0.75-0.86-1.13-0.9-1.31c-0.09-0.36,0.61,0.08,0.67-0.07c-1.41-1.32-2.27-2.11-2.71-2.52c-0.45-0.4-0.52-0.36-0.35-0.04
						c0.32,0.68,1.8,2.41,3.29,4.16c0.75,0.88,1.5,1.78,2.13,2.53c0.66,0.73,1.21,1.32,1.47,1.67c0.26,0.35,0.26,0.44-0.17,0.16
						c-0.21-0.14-0.53-0.38-0.96-0.73c-0.45-0.34-0.99-0.82-1.64-1.45c-1.06-0.89-2.45-2.2-4.05-3.77c-1.56-1.61-3.21-3.58-5-5.62
						c-1.71-2.1-3.38-4.4-5.06-6.61c-1.52-2.32-3.08-4.55-4.39-6.63c1.95,3.76,1.66,3.68,0.06,1.64c-0.81-1.01-1.75-2.63-2.92-4.49
						c-0.56-0.94-1.22-1.92-1.8-2.99c-0.57-1.08-1.15-2.2-1.75-3.34c0.73,1.5,1.3,2.67,1.73,3.61c0.48,0.92,0.83,1.6,1.1,2.13
						c0.53,1.07,0.7,1.55,0.92,2.08c0.22,0.54,0.49,1.13,1.22,2.42c0.76,1.28,2.11,3.18,4.35,6.41l-0.3,0.59
						c-3.77-5.58-7.69-12.52-10.45-18.63c0.76,1.18,0.19-0.26,1.24,1.66c-1.59-2.92-2.82-6.01-4.15-9.05
						c-0.35-0.76-0.63-1.54-0.9-2.32l-0.83-2.35l-0.84-2.35l-0.42-1.18l-0.34-1.2c0.3,0.62,0.58,1.24,0.94,1.83
						c-0.48-1.45-0.81-3-1.22-4.54c-0.37-1.55-0.85-3.1-1.13-4.7c-0.68-3.18-1.14-6.4-1.55-9.48c-0.74-6.16-0.95-11.75-1.11-15.39
						c0.06,2.95,0.1,5.7,0.04,6.96c-0.07,1.25-0.28,1-0.56-2.1c-0.48-3.57-0.81-10.16-0.38-15.78c0.38-1.47,1.05-7.49,1.81-11.42
						c0.76-3.93,1.2-5.82,0.55,0.84c1.02-8.56,1.73-11.21,2.1-13.82c0.19-1.31,0.5-2.56,0.91-4.52c0.22-0.97,0.44-2.13,0.81-3.53
						c0.38-1.39,0.83-3.05,1.38-5.04l-1.52,5.34l-1.31,5.39c-0.43,0.61-0.29-1.36-0.4-2.23c-0.06-0.43-0.18-0.58-0.48,0.02
						c-0.15,0.3-0.34,0.79-0.59,1.53c-0.25,0.74-0.57,1.72-0.87,3.03c0.26-1.56,0.56-2.78,0.75-3.78c0.2-1,0.33-1.78,0.43-2.42
						c0.19-1.28,0.21-2.01,0.33-2.85c0.25-1.68,0.46-3.95,3.28-11.99c1.42-3.16,1.48-2.58,0.76-0.1c-0.63,2.5-2.01,6.9-3.25,11.49
						c0.73-2.28,1.4-4.46,2.23-6.61c0.8-2.16,1.5-4.37,2.28-6.72c0.88-1.6,0.2,0.56-0.58,3.08c-0.72,2.54-1.59,5.44-1.43,5.24
						c1.44-4.08,1.36-4.06,1.23-4c-0.06,0.03-0.13,0.08-0.03-0.37c0.1-0.45,0.36-1.4,1.1-3.31c0.59-1.69,1.1-3.09,1.55-4.27
						c0.49-1.16,0.92-2.09,1.3-2.88c0.76-1.57,1.3-2.56,1.9-3.49c0.6-0.93,1.2-1.84,2.01-3.29c0.39-0.73,0.85-1.59,1.42-2.64
						c0.58-1.04,1.24-2.29,2.03-3.81c-0.71,1.32-1.74,3.12-2.41,4.18c-0.63,1.09-0.92,1.43-0.21-0.24c1.1-2.02,2.01-3.68,2.76-5.05
						c0.75-1.37,1.41-2.43,1.91-3.31c1.02-1.76,1.5-2.78,1.99-3.62c0.47-0.85,0.84-1.57,1.55-2.79c0.35-0.61,0.79-1.34,1.37-2.28
						c0.61-0.91,1.37-2.01,2.34-3.39c1.27-1.42,2.15-2.28,2.9-2.89c0.75-0.6,1.29-1.04,1.93-1.56c0.64-0.53,1.33-1.2,2.39-2.27
						c1.09-1.05,2.48-2.55,4.52-4.75c-1.51,1.65-2.96,3.34-4.44,5.01c1.71-1.62,3.41-3.45,5.21-5.2c1.83-1.73,3.54-3.6,5.33-5.22
						c1.1-1.1,2.19-2.19,3.27-3.27c1.13-1.03,2.24-2.06,3.34-3.07c0.56-0.5,1.09-1.03,1.66-1.51c0.57-0.48,1.14-0.95,1.71-1.43
						c1.14-0.94,2.25-1.91,3.39-2.83c2.35-1.75,4.58-3.61,7-5.2c1.19-0.82,2.38-1.64,3.57-2.46l3.67-2.3l1.85-1.15l1.9-1.06
						c1.27-0.71,2.54-1.42,3.82-2.14c1.31-0.65,2.63-1.31,3.96-1.97c0.66-0.33,1.33-0.66,2-0.99c0.68-0.3,1.37-0.6,2.06-0.9
						c1.38-0.6,2.77-1.2,4.17-1.81c1.43-0.54,2.87-1.08,4.33-1.63c1.45-0.58,2.95-1.05,4.47-1.53c1.52-0.46,3.04-1.02,4.63-1.41
						c-1.51,0.37-2.98,0.9-4.47,1.35c-1.48,0.47-2.98,0.9-4.43,1.47c-1.53,0.41,0.26-0.37,2.47-1.11c2.21-0.73,4.78-1.57,4.67-1.68
						c1.91-0.4,3.85-0.7,5.77-1.05c0.72-0.45-2.52,0.16-5.52,0.78c-2.97,0.73-5.73,1.39-4.12,0.64c0.78-0.16,2.64-0.68,3.7-1.03
						l-5.28,1.36c2.98-0.79,5.75-1.72,8.47-2.36c1.35-0.35,2.67-0.7,3.97-1.04c1.31-0.28,2.59-0.55,3.85-0.82
						c2.51-0.58,4.97-0.91,7.37-1.2c2.39-0.35,4.76-0.34,7.09-0.34c-5.99,0.45-9.15,1.18-10.95,1.54c-1.79,0.43-2.18,0.76-2.56,1.04
						c-0.38,0.29-0.75,0.58-2.44,1.08c-0.84,0.25-2.03,0.53-3.68,1.02c-0.83,0.22-1.78,0.48-2.87,0.78
						c-0.55,0.14-1.13,0.29-1.75,0.46c-0.61,0.19-1.27,0.38-1.96,0.59c0.73-0.22,1.39-0.42,1.96-0.59c0.58-0.14,1.09-0.27,1.53-0.37
						c0.88-0.21,1.48-0.34,1.88-0.4c0.79-0.14,0.74-0.03,0.36,0.16c-0.76,0.39-2.83,1.16-2.19,1.13c6.28-1.35,2.95-1.24,10.09-2.39
						c-0.02,0.11-0.99,0.39-2.32,0.73c-1.33,0.34-3.02,0.73-4.47,1.21c-2.91,0.88-4.95,1.53-1.58,0.88
						c0.31-0.38,2.02-0.97,4.04-1.48c2.03-0.48,4.36-1.01,5.86-1.48c5.31-0.55-0.07,0.41,2.27,0.29c1.46-0.21,2.61-0.45,3.73-0.66
						c1.12-0.19,2.21-0.31,3.53-0.38l-1.97,0.55c3.7-0.18,5.81-0.35,7.19-0.38c1.37-0.07,2-0.18,2.68-0.3
						c0.69-0.1,1.44-0.31,3.08-0.33c0.82-0.02,1.86-0.03,3.22-0.02c0.68,0.01,1.44,0.02,2.3,0.03c0.85,0.07,1.8,0.14,2.85,0.22
						c0.26-0.23-0.91-0.43-3.02-0.58c-1.06-0.03-2.35-0.04-3.82-0.05c-0.73,0-1.51-0.01-2.33-0.01c-0.81,0.01-1.66,0.07-2.54,0.11
						c-0.9-0.25,0-0.5,1.86-0.75c1.86-0.18,4.67-0.29,7.56-0.36c1.45,0.02,2.91,0.04,4.28,0.06c0.69,0.01,1.35,0.01,1.98,0.02
						c0.63,0.03,1.21,0.06,1.75,0.09c2.16,0.09,3.52,0.04,3.21-0.31c2.02,0.26,3.48,0.41,4.48,0.6c1,0.21,1.57,0.34,1.85,0.42
						c0.56,0.16-0.06,0.11-0.75,0.05c-1.38-0.1-3.05-0.2,3.67,1.35c3.64,1.15,1.1,0.83-2.75,0.2c-0.97-0.14-2.01-0.36-3.07-0.48
						c-1.07-0.1-2.14-0.2-3.15-0.29c-2.02-0.18-3.77-0.31-4.64-0.29l6.97,1.19c1.17,0.16,2.3,0.49,3.45,0.76l3.43,0.84
						c-4.77-0.19-13.35-1.6-15.9-0.93c1.29,0.06,2.39,0.29,3.36,0.39c0.97,0.12,1.8,0.23,2.55,0.32c1.49,0.18,2.63,0.3,3.78,0.4
						c1.14,0.18,2.28,0.36,3.79,0.59c1.5,0.27,3.4,0.49,5.98,1.06c-8.25-2.22-6.44-1.91-3.66-1.54c2.77,0.35,6.44,1.09,1.75-0.52
						c0.49,0.12,0.93,0.23,1.34,0.33c0.41,0.12,0.78,0.25,1.12,0.35c0.68,0.23,1.26,0.42,1.77,0.59c1.01,0.34,1.77,0.6,2.64,0.89
						c0.87,0.27,1.84,0.58,3.29,1.04c1.43,0.52,3.33,1.2,6.05,2.18c-3.5-1.13-3.63-0.96-4.04-0.92c-0.2,0.02-0.47,0.01-1.26-0.2
						c-0.78-0.25-2.11-0.58-4.44-1.23c3.78,0.95,6.24,1.97,8.18,2.58c1.92,0.67,3.31,1.04,4.61,1.61c1.32,0.53,2.64,1.07,4.53,1.83
						c0.94,0.41,2.05,0.79,3.31,1.42c1.26,0.63,2.73,1.35,4.48,2.22c4.7,1.59-13.78-7.95,3.35,0.11c3.56,2.03,2.73,1.87,0.66,0.66
						c11.57,7.03-1.99-2.15,5.57,1.82c2.63,1.41,4.24,2.65,5.02,3.23c0.77,0.6,0.64,0.65-0.43,0.04c7.64,4.6,3.85,1.42,8.74,4.81
						l-2.13-1.68c2.17,1.37-2.89-3.65,7.55,4.08c7.3,6.04,4.76,4.44,4.78,4.77c0.72,0.57,1.44,1.1,2.09,1.67
						c0.65,0.58,1.27,1.14,1.88,1.68c1.21,1.1,2.35,2.16,3.42,3.18c1.09,1,2.03,2.04,2.94,3.04c0.9,1,1.77,1.96,2.61,2.9
						c-0.26-0.46,0.23-0.15,1.8,1.43c4.27,4.54,5.32,6,5.73,6.72c0.4,0.73,0.13,0.74,1.54,2.57c2.71,3.5,4.04,5.08,4.7,5.75
						c0.63,0.69,0.64,0.41,0.7,0.18c0.1-0.45,0.46-0.78,6.25,7.28c-1.04-1.62-2.21-3.14-3.31-4.72c-1.14-1.55-2.19-3.16-3.4-4.66
						c-2.41-2.99-4.69-6.1-7.29-8.95c0.89,0.5,1.61,0.54-1.72-3.19c-0.35,0-1.93-1.49-4.24-3.54c-1.14-1.04-2.42-2.25-3.75-3.55
						c-1.32-1.31-2.83-2.57-4.22-3.91c-0.31-0.49,0.52,0.12,1.79,1.15c0.63,0.52,1.39,1.14,2.15,1.8c0.74,0.69,1.5,1.4,2.21,2.06
						c2.81,2.62,4.7,4.29,0.34-0.6c0.8,0.85,1.7,1.77,2.65,2.74c0.95,0.97,1.97,1.97,2.93,3.08c1.95,2.19,4.07,4.41,5.89,6.67
						c-2.07-2.06,0.82,1.57,3.37,4.79c1.3,1.59,2.4,3.17,2.81,3.84c0.41,0.67,0.12,0.44-1.49-1.47c1.87,2.54,3.54,4.81,5.06,6.88
						c1.45,2.11,2.69,4.06,3.86,5.83c2.37,3.54,4.11,6.63,5.83,9.66c1.7,3.04,3.32,6.06,5.12,9.63c1.79,3.58,3.77,7.71,6.01,13.09
						c-0.57-0.91-2.42-4.73-4.98-9.56c-2.53-4.84-5.81-10.66-8.76-15.88l-0.2-1.03c-2.02-3.17-2.74-4.07-2.6-3.74
						c0.15,0.32,1.07,1.92,2.17,3.86c2.21,3.88,4.92,9.22,4,8.17c4.8,7.91,9,17.39,12.11,27.74c3.12,10.36,5.08,21.56,6.12,32.85
						c-0.01-4.01,0.56,0.46,0.95,1.41c-0.38-4.57-0.67-6.44-0.85-8.01c-0.19-1.58-0.27-2.86-0.61-6.22
						c0.69,1.19,1.29,6.65,1.86,9.51c0.36,1.18,0.21-0.55-0.1-2.98c-0.31-2.43-0.83-5.55-0.99-7.17c0.86,4.31,1.13,6.28,1.43,7.8
						c0.25,1.52,0.52,2.6,0.92,5.18c-0.04,4.88-0.32,4.23-0.61,7.97c0.19,10.81-0.18,15.6-0.34,19.89
						c-0.25,4.27-0.44,8.06-2.16,16.63c0.54-2.37,0.62-3.3,0.62-3.49c-0.01-0.2-0.16,0.33-0.3,0.82c-0.29,0.99-0.54,1.89,0.4-3.29
						c-0.35,1.91-0.64,3.83-1.08,5.72c0.33-1.85,0.54-3.89,0.83-6.01c0.32-2.11,0.5-4.34,0.73-6.57c0.26-2.23,0.35-4.49,0.49-6.68
						c0.15-2.19,0.2-4.32,0.22-6.32c0.08-7.99-0.62-13.75-1.12-12.44c0.31,6.06,0.38,11.31,0.21,16.89
						c-0.25,5.58-0.67,11.51-1.99,18.85l-0.11-0.66c-2.16,10.53,0.33-0.1,0.03,2.44c-0.51,2.97-1.02,5.41-1.65,7.47
						c-0.6,2.07-1.13,3.83-1.75,5.43c-0.59,1.61-1.13,3.12-1.63,4.73c-0.55,1.59-1.06,3.3-1.52,5.34c0.67-1.94,1.38-3.87,2.03-5.82
						l1.81-5.89c-2.14,9.07,0.86-2.6,0.96-0.26c-0.47,2.03-1.08,4.21-1.71,6.56c-0.71,2.32-1.48,4.78-2.36,7.34
						c-0.95,2.53-1.86,5.21-3.03,7.88c-0.57,1.34-1.12,2.72-1.73,4.08c-0.63,1.36-1.27,2.73-1.92,4.12
						c-2.67,5.5-5.65,11.1-9.01,16.41l-1.23,2.01l-1.29,1.96c-0.87,1.3-1.73,2.59-2.58,3.88c-1.82,2.49-3.52,5.02-5.37,7.33
						c2.34-2.49,3.65-4.25,5.18-6.17c0.77-0.96,1.5-2.03,2.39-3.3c0.87-1.28,1.95-2.73,3.11-4.64c-0.6,2.02-1.55,3.7-1.85,4.54
						c-0.32,0.83-0.05,0.78,1.57-0.8c1.07-1.5,1.99-3.08,2.99-4.63l1.47-2.33l1.38-2.38l0.93,0.34c-1.45,2.66-3.14,5.15-4.63,7.38
						c-0.06,0.41-0.69,1.49-1.62,2.86c-0.94,1.37-2.07,3.12-3.33,4.74c-1.24,1.64-2.46,3.26-3.41,4.51
						c-0.97,1.23-1.61,2.12-1.62,2.36c2-2.43,3.8-5.02,5.67-7.55c3.1-3.49-3.35,5.59-7.56,10.75c1.12-1.13,2.49-2.7,4.04-4.59
						c1.51-1.92,3.17-4.19,4.89-6.67c3.42-5,6.93-10.99,10.15-16.88c-0.75,0.67,4.77-11.49-1.33,0.02
						c-0.25-0.33,3.19-7.26,5.26-11.92c-0.47,1.24,0.85-0.9,1.6-2.04c0.39-0.56,0.67-0.85,0.57-0.3c-0.1,0.55-0.54,1.96-1.79,4.71
						c1.16-2.66,1.76-4.32,2.22-5.46c0.45-1.14,0.73-1.76,1.02-2.42c0.31-0.66,0.6-1.36,1.09-2.66c0.24-0.65,0.54-1.45,0.92-2.46
						c0.37-1.01,0.84-2.24,1.3-3.78c-0.19,0.9,1.72-4.4,3.29-9.85c0.82-2.71,1.49-5.48,2.1-7.44c0.54-1.97,0.91-3.17,1.05-2.76
						c0.24-2.05-0.07-2.06-0.08-3.39c0.01-0.66,0.05-1.66,0.24-3.42c0.2-1.75,0.59-4.25,1-7.96c-0.27,0.88-0.56,2.57-0.95,4.43
						c-0.4,1.85-0.84,3.87-1.18,5.44c-0.38,1.56-0.72,2.65-0.82,2.68c-0.14,0.02,0.03-1.01,0.33-3.77
						c-0.25,2.39-0.69,4.75-1.03,7.14c-1.31,5-1.34,4.26-1.39,3.93c-0.03-0.17-0.09-0.24-0.36,0.54c-0.28,0.78-0.7,2.42-1.73,5.62
						c1.24-3.75,2.68-11.62,3.41-13.29c-0.48,0.78-0.5-0.06-0.28-1.76c0.23-1.7,0.54-4.29,0.95-6.99c0.32-2.72,0.63-5.56,0.78-7.77
						c0.1-2.22,0.1-3.8-0.11-3.97c0.62-2.89,0.93-6.78,0.79-14.12c0.34,1,0.65-3.08,0.9,2.64c-0.15,4.73-0.12,8.16-0.89,13.34
						c0.36-0.69,0.69-2.23,0.93-4.34c0.22-2.11,0.37-4.79,0.39-7.76c0.08-5.95-0.4-13.07-0.95-19.19c0.08,1.73,0.02,2.22-0.52-1.14
						c-0.32-3.74-1.17-9.7-1.99-14.13c-0.81-4.43-1.43-7.34-0.53-5.1c-3.16-12.33-7.97-24.12-13.83-35.23
						c0.2-0.3,2.57,4.73,3.61,6.79c-2.99-6.37-6.34-12.55-9.98-18.52c-1.12-2.19-0.09-0.73,1.37,1.51c1.46,2.23,3.28,5.29,3.96,6.13
						c-2.48-4.44-5.01-8.8-7.89-13l1.49,1.57c-0.57-0.75-1.6-2.23-2.87-4.08c-0.65-0.92-1.29-1.97-2.07-2.99
						c-0.76-1.04-1.55-2.12-2.35-3.21c-0.79-1.09-1.57-2.19-2.33-3.25c-0.75-1.06-1.55-2.03-2.24-2.96
						c-1.39-1.84-2.5-3.38-3.05-4.31c-2.73-3.18-4.96-5.38-6.82-7.3c-1.92-1.87-3.64-3.32-5.42-4.96c-0.91-0.8-1.79-1.69-2.85-2.58
						c-1.05-0.9-2.18-1.89-3.45-3.03c-0.63-0.57-1.3-1.18-2.01-1.82c-0.36-0.32-0.72-0.66-1.1-1.01c-0.39-0.33-0.8-0.67-1.22-1.02
						c-1.66-1.43-3.54-3.03-5.69-4.87c0.51,0.02,3.02,2.02,5.94,4.4c1.49,1.16,2.94,2.56,4.35,3.8c1.4,1.25,2.71,2.38,3.75,3.2
						c-0.78-0.79-2-1.93-3.42-3.23c-1.43-1.29-3-2.8-4.66-4.1c-3.26-2.68-6.25-5.26-7.04-6.13c-1.67-1.18-3.12-2.19-4.39-3.04
						c-1.26-0.87-2.35-1.57-3.36-2.1c-1.97-1.11-3.38-1.8-4.56-2.34c-1.19-0.53-2.13-0.96-3.27-1.39c-1.14-0.43-2.41-0.96-4.19-1.81
						c-1.43-0.83-2.52-1.47-3.34-1.95c-0.83-0.46-1.38-0.77-1.71-0.95c-0.66-0.39-0.44-0.36,0.15-0.15c1.2,0.36,3.71,1.66,3.53,1.44
						c-1.66-1.05-4.13-1.94-6.48-2.93c-2.35-0.99-4.6-2.06-6.1-3.1c-6.1-2.12-9.58-3.02-0.95,0.9c-1.61-0.7-3.41-1.44-5.21-2.18
						c-1.81-0.74-3.7-1.27-5.41-1.84c-1.71-0.55-3.27-1.04-4.51-1.39c-1.27-0.29-2.21-0.48-2.65-0.54c2.87,0.33,0.97-0.3-1.73-1.13
						c-1.35-0.42-2.9-0.88-4.15-1.3c-1.26-0.36-2.24-0.65-2.39-0.88c-1.31-0.29-2.82-0.63-4.48-0.99c-0.83-0.18-1.69-0.38-2.59-0.56
						c-0.91-0.13-1.85-0.27-2.81-0.41c-1.93-0.27-3.96-0.55-6.03-0.84c-2.08-0.21-4.23-0.32-6.36-0.47
						c-4.27-0.16-8.52-0.16-12.32,0.15c-0.95,0.07-1.87,0.11-2.76,0.2c-0.88,0.12-1.73,0.23-2.54,0.34
						c-1.61,0.23-3.06,0.45-4.29,0.7c0.94-0.44,1.9-0.84,2.86-1.26c-1.04,0.11-2.09,0.18-3.12,0.31l-3.1,0.45l-3.1,0.45
						c-1.03,0.17-2.05,0.39-3.08,0.59c-4.66,0.57-1.99-0.1,2.66-1.06c2.34-0.36,5.16-0.83,7.81-1.12c2.65-0.24,5.11-0.5,6.68-0.59
						c-8.54,0.45-15.6,1.59-22.36,3.03c-1.68,0.4-3.35,0.8-5.02,1.2c-1.67,0.42-3.31,0.95-5,1.42c-0.84,0.25-1.68,0.5-2.54,0.75
						c-0.84,0.29-1.69,0.58-2.55,0.88c-1.71,0.62-3.5,1.14-5.27,1.89c2.11-0.74,2.6-0.72,2.79-0.68c0.19,0.06,0.11,0.22,1.17,0.02
						c-2.44,0.99-5.29,2.25-8.22,3.38c-1.45,0.6-2.88,1.27-4.27,1.88c-1.39,0.62-2.74,1.22-3.92,1.89c-0.64,0.19-0.84,0.16-0.4-0.17
						c0.44-0.32,1.49-0.99,3.43-1.88c-1.6,0.71-3.15,1.55-4.7,2.37c-1.54,0.83-3.12,1.59-4.62,2.52c0.21-0.48-0.8-0.08-0.75-0.25
						c0.05-0.16,1.1-0.98,5.69-3.51c-1.44,0.78-2.88,1.53-4.3,2.33l-4.2,2.51c-9.28,5.51,0.09-0.77,2.37-2.18l-3.73,2.11
						c-1.24,0.71-2.43,1.5-3.65,2.25c-1.2,0.78-2.44,1.49-3.61,2.32l-3.52,2.45c-2.41,1.91-1.59,1.55-1.4,1.52
						c0.2-0.01-0.18,0.4-4.76,4.1c-6.26,4.77-12.85,10.92-18.91,17.87c-6.07,6.94-11.61,14.67-16.26,22.29
						c2.3-3.51,4.79-6.89,7.34-10.19c-6.21,8.76-4.05,7.59-5.43,10.59c-0.64,1.05-1.34,2.12-1.99,3.27
						c-0.64,1.15-1.3,2.34-1.97,3.54c-0.33,0.6-0.67,1.21-1.01,1.82c-0.31,0.62-0.63,1.25-0.95,1.87c-0.63,1.25-1.26,2.51-1.89,3.75
						c-1.2,2.52-2.32,5.02-3.37,7.36c-0.98,2.37-1.9,4.58-2.7,6.5c1.47-4.51,1.75-5.92,1.13-5.19c-0.58,0.74-2.14,3.58-3.76,7.75
						c-3.28,9.54-3.74,13.37-4.16,16.02c-0.17,1.34-0.2,2.42-0.36,3.84c-0.14,1.43-0.43,3.19-0.81,5.95
						c0.18-4.38-0.61-0.98-1.31,3.31c-0.72,4.29-1.18,9.48-1.41,8.46c-0.63,6.38-0.83,12.83-0.61,19.3
						c0.26,6.47,0.92,12.95,2.11,19.39c2.45,12.88,6.88,25.52,13.13,37.3c-0.1-0.54-3.29-7.48-1.07-3.37
						c0.56,1.09,1.08,2.1,1.57,3.05c0.52,0.93,1.01,1.78,1.46,2.58c0.89,1.6,1.61,2.96,2.19,4.1c1.25,2.22,1.94,3.56,2.2,4.19
						c0.9,1.3,1.68,2.58,2.55,3.7c0.87,1.12,1.69,2.18,2.46,3.17c0.78,0.99,1.5,1.93,2.22,2.79c0.75,0.83,1.45,1.6,2.1,2.33
						c1.33,1.44,2.45,2.7,3.5,3.72c1.07,1,1.98,1.83,2.75,2.53c-3.86-3.86-3.94-4.45-3.06-3.88c2.1,2.31,3.58,3.84,4.64,5.06
						c0.53,0.61,0.98,1.12,1.39,1.59c0.42,0.45,0.8,0.85,1.17,1.25c0.75,0.79,1.5,1.56,2.62,2.62c0.56,0.52,1.21,1.13,2.02,1.82
						c0.84,0.65,1.82,1.42,3,2.33c0.49,0.63,0.09,0.43-0.77-0.21c-0.43-0.32-0.98-0.75-1.6-1.24c-0.31-0.25-0.63-0.5-0.96-0.77
						c-0.32-0.29-0.65-0.58-0.98-0.88c-2.64-2.38-5.46-4.94-5.26-4.32c2.01,1.92,3.84,3.64,5.56,5.23c1.77,1.53,3.48,2.87,5.08,4.17
						c1.59,1.33,3.25,2.41,4.85,3.55c1.62,1.11,3.18,2.27,4.94,3.29c0.65,0.67-0.93-0.31-2.01-1.07c-1.06-0.79-1.72-1.22,0.66,0.71
						c7.11,4.83,15.47,9.36,23.68,12.85c1.03,0.43,2.05,0.86,3.06,1.28c0.51,0.21,1.01,0.42,1.51,0.62
						c0.51,0.18,1.02,0.36,1.52,0.54c2.01,0.71,3.97,1.4,5.86,2.06c1.92,0.56,3.76,1.1,5.51,1.62c0.88,0.25,1.72,0.51,2.55,0.73
						c0.83,0.2,1.64,0.39,2.42,0.57l3.21,1.38c1.99,0.54,3.85,0.82,5.54,1.15c1.7,0.3,3.23,0.62,4.65,0.81
						c2.83,0.35,5.12,0.59,7,0.73c4.38,0.65,0.92,0.55-3.31-0.05c1.36,0.19,2.76,0.43,4.18,0.58c1.43,0.12,2.88,0.25,4.32,0.37
						c2.89,0.29,5.8,0.33,8.56,0.4c2.76,0.12,5.36-0.03,7.67-0.07c1.15-0.03,2.23-0.04,3.21-0.09c0.98-0.06,1.87-0.12,2.64-0.17
						c-0.49,0.18-2.04,0.32-3.7,0.34c-1.66,0.01-3.42,0.02-4.33,0.16c1.72,0.01,3.5,0.01,5.3-0.03c1.8-0.12,3.64-0.24,5.49-0.36
						c0.92-0.07,1.85-0.12,2.77-0.22c0.92-0.11,1.84-0.23,2.75-0.34c1.83-0.24,3.65-0.42,5.42-0.7c3.53-0.63,6.93-1.08,9.96-1.74
						c1.52-0.29,2.96-0.56,4.3-0.78c1.35-0.21,2.56-0.49,3.68-0.65c-1.12,0.35-2.4,0.73-3.61,0.94c9.94-2.12,19.03-5.02,28.03-8.7
						c4.53-1.77,8.97-3.87,13.51-6.19c4.52-2.34,9.12-4.96,13.77-8.04c4.36-2.68,6.73-4.53,8.21-5.72c1.45-1.24,2.02-1.83,2.54-2.47
						c0.52-0.64,1.04-1.27,2.34-2.59c1.28-1.35,3.43-3.33,6.88-7.05c0.57,0.45,5.39-4.63,9.71-11.3c2.18-3.31,4.27-6.97,5.98-10.29
						c1.72-3.31,3.09-6.28,4.05-8.15l-1.34,2.33c1.87-4.55,4.13-9.9,6.07-14.98c1.97-5.07,3.64-9.87,4.74-13.13
						c1.96-7.15,3.87-16.28,4.54-25.6c0.72-9.3,0.22-18.73-1.1-26.09l0.67,2.91c-0.88-6.12-1.79-11.04-2.91-15.9
						c-1.13-4.86-2.49-9.66-4.69-15.37c0.21,0.28,1.88,4.54,0.43,0.03c-2.38-6.97-5.25-13.76-8.47-20.37
						c-3.23-6.6-6.8-13.11-11.01-19.32c-4.2-6.2-8.97-12.14-14.53-17.41c-5.54-5.28-11.89-9.81-18.62-13.41
						c-13.53-7.21-28.52-10.73-43.35-11.83c-14.88-1.09-29.7,0.3-44.01,3.28c-27.43,5.69-55.16,18.86-78.2,39.12
						c-5.77,5.04-11.18,10.59-16.21,16.51c-5.03,5.93-9.64,12.29-13.67,19.06c-8.1,13.48-13.89,28.68-16.1,44.55
						c-1.08,7.92-1.34,15.95-0.68,23.91c0.71,7.96,2.32,15.85,4.88,23.41c0.67,1.88,1.37,3.75,2.12,5.6l1.21,2.74l0.61,1.36
						l0.68,1.33c1.75,3.59,3.79,7.01,6,10.28c4.43,6.54,9.61,12.42,15.23,17.68c2.81,2.63,5.73,5.1,8.73,7.43
						c2.97,2.36,6.16,4.43,9.28,6.55c6.4,3.99,13.03,7.46,19.85,10.25c1.7,0.7,3.45,1.28,5.16,1.92l2.58,0.93l2.62,0.78
						c1.75,0.5,3.47,1.07,5.23,1.49c1.76,0.4,3.52,0.8,5.27,1.2l1.31,0.3l1.33,0.21l2.65,0.42c1.76,0.27,3.51,0.6,5.28,0.71
						c1.77,0.16,3.52,0.32,5.28,0.47c1.76,0.08,3.52,0.09,5.26,0.13c0,0,0.83-0.07,2.26-0.2c1.43-0.2,3.46-0.56,5.84-0.97
						c0.6-0.11,1.21-0.2,1.85-0.33c0.63-0.16,1.28-0.33,1.95-0.49c1.32-0.34,2.71-0.7,4.14-1.07c0.71-0.16,1.42-0.42,2.13-0.67
						c0.71-0.25,1.42-0.5,2.14-0.76c0.71-0.26,1.42-0.51,2.14-0.77c0.71-0.26,1.42-0.5,2.1-0.85c1.35-0.64,2.7-1.28,4-1.89
						c0.64-0.32,1.28-0.6,1.89-0.94c0.59-0.36,1.17-0.71,1.74-1.06c2.24-1.41,4.23-2.58,5.62-3.88
						C207.51,286.93,208.56,285.47,206.64,285.71z"/>
					<path class="st0" d="M252.72,57.19c-0.42-0.27-0.82-0.49-1.34-0.76C251.89,56.7,252.32,56.94,252.72,57.19z"/>
					<path class="st0" d="M51.82,150.08c0.15-0.58,0.3-1.17,0.45-1.75l0.51-1.74c-0.18,0.57-0.35,1.14-0.53,1.72
						C52.1,148.88,51.96,149.47,51.82,150.08z"/>
					<path class="st0" d="M154.03,313.14c-1.48-0.29-2.97-0.5-4.43-0.89c0.94,0.26,1.77,0.42,2.5,0.55
						C152.83,312.92,153.46,313.04,154.03,313.14z"/>
					<path class="st0" d="M293.08,109.37c0.6,1.58-4.94-5-1.04,1.24c3.57,5.36,5.54,8.8,6.97,11.08c1.41,2.29,2.24,3.47,3.08,4.67
						c0.84,1.2,1.67,2.44,3,4.93c1.32,2.49,3.16,6.23,5.54,12.58c-1.47-4.35-3.12-8.66-4.94-12.92c-0.38,1.01-4.73-7.72-10.27-16.58
						c-0.42-0.99-0.82-2-1.25-2.99c1.11,1.41,2.24,2.97,3.36,4.64c-0.99-1.72-1.49-2.36-2.05-3.08
						C294.94,112.2,294.34,111.39,293.08,109.37z"/>
					<path class="st0" d="M298.02,116.87c-0.09-0.18-0.21-0.4-0.29-0.58c-0.05-0.08-0.13-0.19-0.19-0.28
						C297.69,116.29,297.84,116.53,298.02,116.87z"/>
				</g>
			</g>
		</g>
	</g>
</g>
</svg>
