<?xml version="1.0" encoding="utf-8"?>
<!-- Generator: Adobe Illustrator 24.2.1, SVG Export Plug-In . SVG Version: 6.00 Build 0)  -->
<svg version="1.1" id="레이어_1" xmlns="http://www.w3.org/2000/svg" xmlns:xlink="http://www.w3.org/1999/xlink" x="0px"
	 y="0px" viewBox="0 0 1280 1024" style="enable-background:new 0 0 1280 1024;" xml:space="preserve">
<style type="text/css">
	.st0{fill:none;}
</style>
<g>
	<path class="st0" d="M382.83,85.48C358.33,219.53,301.73,347.6,219.1,455.95c-29.09,38.14-63.92,75.55-110.03,88.79
		c36.85-37.37,92.12-49.45,144.47-53.24s105.94-1.18,156.16-16.41c97.96-29.72,163.12-119.83,220.89-204.35
		C552.8,375.57,475.02,480.4,397.24,585.24c-14.79,19.94-28.85,50.25-10.18,66.61c9.58,8.4,23.76,8.29,36.43,7
		c58.73-6,115.76-27.95,163.37-62.87c10.78-7.9,21.63-17.26,25.33-30.11s-3.33-29.49-16.6-31.09c-6.82-0.83-13.44,2.33-19.43,5.69
		c-35.29,19.8-64.64,50.05-83.37,85.92c-3.85,7.38-7.35,15.39-6.87,23.7c1.26,22.07,27.53,32.66,49.4,35.9
		c86.82,12.88,177.12-8.52,252.81-52.97s137.15-110.99,181.97-186.46c2.1-3.54,4.24-7.52,3.42-11.55
		c-1.95-9.54-16.02-8.57-24.82-4.39c-45.87,21.77-78.45,63.65-108.55,104.54c-50.43,68.51-98.96,138.42-145.5,209.64
		c-5.21,7.97-10.63,16.98-9.03,26.37c3.63,21.35,34.53,20.84,55.08,13.98c105.58-35.24,205.17-88.38,293.22-156.48
		c35.52-27.47,70.1-58.55,89.22-99.17c-57.83,10.32-106.9,48.03-149.06,88.93C913.9,676.81,862.5,744.22,822.12,817.69
		c-4.05,7.37-8.1,15.26-7.7,23.66c1.17,24.7,34.91,30.87,59.5,28.25c62.64-6.66,124.33-22.13,182.71-45.81
		c12.04-4.88,24.67-10.73,31.46-21.81s4.07-28.74-8.23-32.91c-4.91-1.66-10.28-0.93-15.36,0.06c-33.2,6.46-64.31,23.27-87.92,47.49
		c-13.49,13.84-24.87,30.85-27.19,50.04s6.43,40.57,24.03,48.57c17.35,7.89,38.7,0.91,52.34-12.41
		c13.64-13.32,20.95-31.74,26.45-49.99c8.01-26.59,12.96-54.11,14.74-81.82"/>
</g>
</svg>
