<?xml version="1.0" encoding="utf-8"?>
<!-- Generator: Adobe Illustrator 24.2.1, SVG Export Plug-In . SVG Version: 6.00 Build 0)  -->
<svg version="1.1" id="레이어_1" xmlns="http://www.w3.org/2000/svg" xmlns:xlink="http://www.w3.org/1999/xlink" x="0px"
	 y="0px" viewBox="0 0 1280 1024" style="enable-background:new 0 0 1280 1024;" xml:space="preserve">
<style type="text/css">
	.st0{fill:none;}
</style>
<g>
	<g>
		<path class="st0" d="M194.31,454.76c33.35-13.13,72.28-5,102.71,13.93c30.44,18.93,53.63,47.46,74.02,76.94
			c68.22,98.64,111.42,214.44,124.47,333.67c3.99,36.43,4.74,75.32-13.03,107.38c-5.98-16.07-3.59-33.9-0.82-50.81
			c37.61-229.33,131.29-446.88,165.15-676.8c8.08-54.85,11.78-114.6-16.98-161.99c-5.7-9.4-16.96-19.09-26.35-13.37
			c-4.15,2.53-6.24,7.37-7.54,12.05c-7.28,26.12,2.3,53.66,11.76,79.07c28.53,76.66,57.06,153.31,85.59,229.97
			c26.04,69.97,52.13,140.05,84.09,207.52c18.09,38.2,38.79,76.48,70.9,103.96c16.55,14.17,38.45,25.54,59.53,20.03
			c26.53-6.93,39.63-36.68,45.16-63.55c11.81-57.36,5.79-118.27-17.03-172.2c9.6,25.57,33.64,45.69,60.79,48.57
			c27.15,2.88,55.82-12.83,66.21-38.09c6.21-15.11,5.96-32.05,4.35-48.31c-5.51-55.6-26.09-109.64-58.94-154.82"/>
	</g>
	<g>
		<path class="st0" d="M831.09,317.47c1.77,8.49,3.54,16.99,5.31,25.48"/>
	</g>
</g>
</svg>
