<?xml version="1.0" encoding="utf-8"?>
<!-- Generator: Adobe Illustrator 24.2.1, SVG Export Plug-In . SVG Version: 6.00 Build 0)  -->
<svg version="1.1" id="레이어_1" xmlns="http://www.w3.org/2000/svg" xmlns:xlink="http://www.w3.org/1999/xlink" x="0px"
	 y="0px" viewBox="0 0 500 500" style="enable-background:new 0 0 500 500;" xml:space="preserve">
<style type="text/css">
	.st0{fill:none;}
</style>
<g>
	<path class="st0" d="M419.45,106.31c-23.77,18.81-47.53,37.61-71.3,56.42c35.95,8.63,71.9,17.26,107.86,25.89
		c7.88,1.89,19.48,1.29,20.13-6.85c0.23-2.88-1.27-5.58-2.73-8.07c-16.53-28.22-34.22-55.75-53.02-82.5
		c-6.08,15.25-3.55,32.44-0.96,48.67c5.87,36.75,11.6,73.97,8.45,111.06c-1.89,22.19-7.22,44.69-19.9,62.93
		c-12.68,18.24-33.7,31.61-55.78,30.7c-22.08-0.91-43.53-18.71-44.74-40.95c-0.42-7.68,1.59-15.68,6.54-21.53
		c7.12-8.4,19.52-11.07,30.09-8.11s19.3,10.8,25.27,20.07c12.09,18.76,13.38,44.08,3.27,63.99c-5.31,10.46-13.39,19.25-22.09,27.06
		c-23.61,21.18-53.05,36.17-84.36,40.53s-64.4-2.33-90.43-20.39c-13.64-9.46-25.53-22.38-30.69-38.24"/>
</g>
<g>
	<path class="st0" d="M8.08,292.97c1.02-4.69,6.36-7.44,11.14-7.02c4.78,0.42,9,3.23,12.7,6.29c18.22,15.11,28.92,38.87,28.15,62.53
		c-1.24,1.9-3.95-0.56-4.68-2.7c-6.62-19.41-8.74-40.34-6.16-60.69c0.6-4.71,1.48-9.5,3.91-13.58c2.43-4.08,6.69-7.35,11.43-7.4
		c5.39-0.06,9.96,3.83,13.59,7.81c13.43,14.71,21.82,33.95,23.47,53.8c-10.72-20-13.74-44.01-8.31-66.05
		c1.46-5.92,4.09-12.35,9.73-14.65c7.87-3.21,16.2,3.46,21.21,10.32c8.75,12,14.23,26.35,15.71,41.13c-2.13-4.95,1.01-10.78,5.33-14
		c4.33-3.22,9.67-4.71,14.44-7.21c8.52-4.47,15.18-12.37,18.14-21.53c2.25-6.96,1.29-16.41-5.5-19.13
		c-5.13-2.05-11.18,1.12-14.13,5.8c-2.95,4.68-3.5,10.43-3.77,15.95c-0.55,11.54,0.14,24,7.24,33.12c3.88,4.98,9.98,8.67,16.27,8.04
		c7.02-0.71,12.45-6.43,16.28-12.35c5.29-8.17,8.88-17.43,10.45-27.04c0.68-4.14,0.27-9.56-3.7-10.94
		c2.97,8.94,7.04,17.51,12.1,25.45c-4.72-13.83-7.31-28.4-7.64-43.01c-0.07-3.19-0.01-6.5,1.38-9.37c1.39-2.87,4.49-5.15,7.63-4.6
		c3.12,0.55,5.15,3.5,6.81,6.19c7.58,12.27,15.15,24.54,22.73,36.81c-0.91-19.42-1.82-38.85-2.72-58.27
		c2.81,4.97,5.62,9.94,8.43,14.9c4.98,8.81,11.12,18.5,21.03,20.51c3.63,0.74,7.8,0.15,10.34-2.55c1.38-1.47,2.15-3.4,2.77-5.32
		c3.71-11.56,2.82-24.52-2.42-35.47c2.2,6.23,5.7,12,10.21,16.83c1.5,1.61,3.19,3.16,5.27,3.86c4.82,1.61,10.11-2.06,12.13-6.72
		c2.02-4.66,1.61-9.96,1.18-15.02"/>
</g>
</svg>
